<svg width="900" height="813" viewBox="0 0 900 813" fill="none" xmlns="http://www.w3.org/2000/svg">
<rect width="900" height="813" fill="black"/>
<path d="M324.64 374H316V320.4H325.28L349.28 351.76L356.24 361.76H356.88L356.48 352.08V320.4H365.12V374H355.84L331.68 342.72L324.96 333.28H324.32L324.64 342.56V374ZM410.709 374H402.789V363.76L402.229 363.52V349.92C402.229 346.613 401.429 344.32 399.829 343.04C398.283 341.707 395.589 341.04 391.749 341.04C388.069 341.04 385.323 341.68 383.509 342.96C381.696 344.24 380.789 346.347 380.789 349.28V349.6H372.229V349.28C372.229 346.24 373.029 343.547 374.629 341.2C376.229 338.8 378.523 336.907 381.509 335.52C384.549 334.133 388.176 333.44 392.389 333.44C396.603 333.44 400.043 334.16 402.709 335.6C405.429 336.987 407.429 338.907 408.709 341.36C410.043 343.813 410.709 346.64 410.709 349.84V374ZM384.789 374.8C380.683 374.8 377.403 373.893 374.949 372.08C372.549 370.213 371.349 367.653 371.349 364.4C371.349 362.32 371.856 360.587 372.869 359.2C373.936 357.76 375.429 356.64 377.349 355.84C379.269 355.04 381.536 354.48 384.149 354.16L403.029 352.16V357.28L386.629 359.12C384.389 359.387 382.709 359.867 381.589 360.56C380.523 361.2 379.989 362.293 379.989 363.84C379.989 365.44 380.549 366.64 381.669 367.44C382.843 368.187 384.656 368.56 387.109 368.56C390.149 368.56 392.789 368.187 395.029 367.44C397.269 366.64 399.029 365.413 400.309 363.76C401.589 362.107 402.229 359.973 402.229 357.36L403.349 357.52V364.08H402.229C401.163 367.44 399.109 370.08 396.069 372C393.083 373.867 389.323 374.8 384.789 374.8ZM444.502 374H435.382C431.115 374 427.729 372.96 425.222 370.88C422.769 368.8 421.542 365.36 421.542 360.56V325.52H430.102V360.08C430.102 362.533 430.689 364.187 431.862 365.04C433.035 365.84 434.849 366.24 437.302 366.24H444.502V374ZM444.502 341.44H414.822V334.24H444.502V341.44ZM458.546 374H449.906V334.24H458.546V374ZM458.546 329.6H449.906V320.4H458.546V329.6ZM486.867 374.8C482.494 374.8 478.627 373.947 475.267 372.24C471.96 370.48 469.374 368.053 467.507 364.96C465.694 361.813 464.787 358.213 464.787 354.16C464.787 350 465.694 346.373 467.507 343.28C469.374 340.187 471.96 337.787 475.267 336.08C478.627 334.32 482.494 333.44 486.867 333.44C491.347 333.44 495.24 334.32 498.547 336.08C501.854 337.787 504.414 340.187 506.227 343.28C508.094 346.373 509.027 350 509.027 354.16C509.027 358.213 508.094 361.813 506.227 364.96C504.414 368.053 501.854 370.48 498.547 372.24C495.24 373.947 491.347 374.8 486.867 374.8ZM486.867 367.12C491.72 367.12 495.214 366.027 497.347 363.84C499.48 361.6 500.547 358.373 500.547 354.16C500.547 349.947 499.48 346.72 497.347 344.48C495.214 342.187 491.72 341.04 486.867 341.04C482.067 341.04 478.6 342.187 476.467 344.48C474.334 346.72 473.267 349.947 473.267 354.16C473.267 358.373 474.334 361.6 476.467 363.84C478.6 366.027 482.067 367.12 486.867 367.12ZM556.817 374H548.177V352.4C548.177 348.667 547.27 345.867 545.457 344C543.697 342.133 540.737 341.2 536.577 341.2C532.257 341.2 529.057 342.32 526.977 344.56C524.95 346.747 523.937 350 523.937 354.32L522.417 354.4L522.017 346.56H523.777C524.204 344.32 525.057 342.213 526.337 340.24C527.67 338.213 529.484 336.587 531.777 335.36C534.124 334.08 536.977 333.44 540.337 333.44C544.017 333.44 547.084 334.187 549.537 335.68C551.99 337.173 553.804 339.173 554.977 341.68C556.204 344.187 556.817 346.987 556.817 350.08V374ZM523.937 374H515.297V334.24H523.217V346.72L523.937 347.12V374ZM602.116 374H594.196V363.76L593.636 363.52V349.92C593.636 346.613 592.836 344.32 591.236 343.04C589.689 341.707 586.996 341.04 583.156 341.04C579.476 341.04 576.729 341.68 574.916 342.96C573.102 344.24 572.196 346.347 572.196 349.28V349.6H563.636V349.28C563.636 346.24 564.436 343.547 566.036 341.2C567.636 338.8 569.929 336.907 572.916 335.52C575.956 334.133 579.582 333.44 583.796 333.44C588.009 333.44 591.449 334.16 594.116 335.6C596.836 336.987 598.836 338.907 600.116 341.36C601.449 343.813 602.116 346.64 602.116 349.84V374ZM576.196 374.8C572.089 374.8 568.809 373.893 566.356 372.08C563.956 370.213 562.756 367.653 562.756 364.4C562.756 362.32 563.262 360.587 564.276 359.2C565.342 357.76 566.836 356.64 568.756 355.84C570.676 355.04 572.942 354.48 575.556 354.16L594.436 352.16V357.28L578.036 359.12C575.796 359.387 574.116 359.867 572.996 360.56C571.929 361.2 571.396 362.293 571.396 363.84C571.396 365.44 571.956 366.64 573.076 367.44C574.249 368.187 576.062 368.56 578.516 368.56C581.556 368.56 584.196 368.187 586.436 367.44C588.676 366.64 590.436 365.413 591.716 363.76C592.996 362.107 593.636 359.973 593.636 357.36L594.756 357.52V364.08H593.636C592.569 367.44 590.516 370.08 587.476 372C584.489 373.867 580.729 374.8 576.196 374.8ZM618.468 374H609.828V320.4H618.468V374ZM340.64 472.8C335.413 472.8 330.827 471.68 326.88 469.44C322.933 467.147 319.867 463.947 317.68 459.84C315.493 455.68 314.4 450.8 314.4 445.2C314.4 439.6 315.573 434.747 317.92 430.64C320.267 426.48 323.573 423.28 327.84 421.04C332.107 418.747 337.093 417.6 342.8 417.6C347.867 417.6 352.32 418.427 356.16 420.08C360.053 421.68 363.093 423.973 365.28 426.96C367.467 429.947 368.56 433.52 368.56 437.68V438.32H359.04V437.68C359.04 433.84 357.68 430.933 354.96 428.96C352.24 426.933 348.107 425.92 342.56 425.92C338.24 425.92 334.667 426.613 331.84 428C329.067 429.333 326.987 431.413 325.6 434.24C324.213 437.067 323.52 440.72 323.52 445.2C323.52 449.627 324.187 453.28 325.52 456.16C326.907 458.987 328.96 461.093 331.68 462.48C334.453 463.813 337.947 464.48 342.16 464.48C346.427 464.48 349.867 464.08 352.48 463.28C355.093 462.427 356.987 461.067 358.16 459.2C359.387 457.333 360 454.907 360 451.92V450.16L368.56 450.4V451.68L361.44 460.4H360.16C359.413 463.013 358.16 465.253 356.4 467.12C354.693 468.987 352.507 470.4 349.84 471.36C347.227 472.32 344.16 472.8 340.64 472.8ZM368.56 472H360.72V458.4L360 457.28V445.68H368.56V472ZM368.56 451.2H340.16V444.64H368.56V451.2ZM395.844 472.8C391.524 472.8 387.737 472 384.484 470.4C381.23 468.8 378.697 466.453 376.884 463.36C375.124 460.267 374.244 456.533 374.244 452.16C374.244 448 375.124 444.373 376.884 441.28C378.697 438.187 381.204 435.787 384.404 434.08C387.604 432.32 391.364 431.44 395.684 431.44C399.79 431.44 403.39 432.187 406.484 433.68C409.63 435.12 412.057 437.253 413.764 440.08C415.524 442.853 416.404 446.267 416.404 450.32C416.404 451.013 416.377 451.68 416.324 452.32C416.27 452.907 416.19 453.493 416.084 454.08H379.764V449.28H410.404L408.164 452.24C408.217 451.707 408.244 451.2 408.244 450.72C408.244 450.187 408.244 449.653 408.244 449.12C408.244 445.44 407.177 442.72 405.044 440.96C402.964 439.147 399.79 438.24 395.524 438.24C390.777 438.24 387.39 439.333 385.364 441.52C383.337 443.707 382.324 446.853 382.324 450.96V453.04C382.324 457.2 383.337 460.373 385.364 462.56C387.39 464.747 390.804 465.84 395.604 465.84C399.764 465.84 402.75 465.2 404.564 463.92C406.43 462.587 407.364 460.747 407.364 458.4V457.76H416.004V458.48C416.004 461.307 415.124 463.813 413.364 466C411.657 468.133 409.284 469.813 406.244 471.04C403.257 472.213 399.79 472.8 395.844 472.8ZM443.195 472.8C438.822 472.8 434.955 471.947 431.595 470.24C428.288 468.48 425.702 466.053 423.835 462.96C422.022 459.813 421.115 456.213 421.115 452.16C421.115 448 422.022 444.373 423.835 441.28C425.702 438.187 428.288 435.787 431.595 434.08C434.955 432.32 438.822 431.44 443.195 431.44C447.675 431.44 451.568 432.32 454.875 434.08C458.182 435.787 460.742 438.187 462.555 441.28C464.422 444.373 465.355 448 465.355 452.16C465.355 456.213 464.422 459.813 462.555 462.96C460.742 466.053 458.182 468.48 454.875 470.24C451.568 471.947 447.675 472.8 443.195 472.8ZM443.195 465.12C448.048 465.12 451.542 464.027 453.675 461.84C455.808 459.6 456.875 456.373 456.875 452.16C456.875 447.947 455.808 444.72 453.675 442.48C451.542 440.187 448.048 439.04 443.195 439.04C438.395 439.04 434.928 440.187 432.795 442.48C430.662 444.72 429.595 447.947 429.595 452.16C429.595 456.373 430.662 459.6 432.795 461.84C434.928 464.027 438.395 465.12 443.195 465.12ZM492.505 486.4C488.558 486.4 485.092 485.787 482.105 484.56C479.118 483.387 476.772 481.68 475.065 479.44C473.412 477.2 472.585 474.48 472.585 471.28H481.145C481.145 473.2 481.545 474.747 482.345 475.92C483.145 477.093 484.398 477.92 486.105 478.4C487.865 478.933 490.158 479.2 492.985 479.2C496.025 479.2 498.425 478.853 500.185 478.16C501.998 477.52 503.305 476.373 504.105 474.72C504.905 473.067 505.305 470.773 505.305 467.84V444.56L505.945 444V432.24H513.865V467.36C513.865 471.787 512.985 475.387 511.225 478.16C509.465 480.987 506.985 483.067 503.785 484.4C500.585 485.733 496.825 486.4 492.505 486.4ZM488.905 468.4C484.958 468.4 481.572 467.627 478.745 466.08C475.972 464.533 473.812 462.373 472.265 459.6C470.772 456.827 470.025 453.6 470.025 449.92C470.025 446.24 470.798 443.013 472.345 440.24C473.945 437.467 476.185 435.307 479.065 433.76C481.998 432.213 485.465 431.44 489.465 431.44C493.625 431.44 497.145 432.373 500.025 434.24C502.958 436.053 504.772 438.693 505.465 442.16H507.305L506.825 449.12H505.305C505.305 446.88 504.772 445.013 503.705 443.52C502.638 441.973 501.118 440.827 499.145 440.08C497.172 439.333 494.772 438.96 491.945 438.96C489.225 438.96 486.852 439.307 484.825 440C482.852 440.693 481.332 441.84 480.265 443.44C479.252 444.987 478.745 447.147 478.745 449.92C478.745 452.64 479.252 454.8 480.265 456.4C481.278 458 482.745 459.173 484.665 459.92C486.638 460.613 488.985 460.96 491.705 460.96C496.078 460.96 499.438 460.053 501.785 458.24C504.132 456.427 505.305 453.76 505.305 450.24H506.825V458.08H504.745C504.052 461.12 502.372 463.6 499.705 465.52C497.038 467.44 493.438 468.4 488.905 468.4ZM530.499 472H521.859V432.24H529.779V443.52L530.499 443.92V472ZM530.499 449.68H528.579V442.96H530.339C530.713 440.773 531.459 438.827 532.579 437.12C533.699 435.36 535.193 433.973 537.059 432.96C538.979 431.947 541.299 431.44 544.019 431.44C547.059 431.44 549.539 432.08 551.459 433.36C553.379 434.64 554.766 436.347 555.619 438.48C556.526 440.613 556.979 442.933 556.979 445.44V450.64H548.419V447.12C548.419 444.24 547.779 442.133 546.499 440.8C545.219 439.467 543.086 438.8 540.099 438.8C536.686 438.8 534.233 439.733 532.739 441.6C531.246 443.467 530.499 446.16 530.499 449.68ZM600.006 472H592.086V461.76L591.526 461.52V447.92C591.526 444.613 590.726 442.32 589.126 441.04C587.58 439.707 584.886 439.04 581.046 439.04C577.366 439.04 574.62 439.68 572.806 440.96C570.993 442.24 570.086 444.347 570.086 447.28V447.6H561.526V447.28C561.526 444.24 562.326 441.547 563.926 439.2C565.526 436.8 567.82 434.907 570.806 433.52C573.846 432.133 577.473 431.44 581.686 431.44C585.9 431.44 589.34 432.16 592.006 433.6C594.726 434.987 596.726 436.907 598.006 439.36C599.34 441.813 600.006 444.64 600.006 447.84V472ZM574.086 472.8C569.98 472.8 566.7 471.893 564.246 470.08C561.846 468.213 560.646 465.653 560.646 462.4C560.646 460.32 561.153 458.587 562.166 457.2C563.233 455.76 564.726 454.64 566.646 453.84C568.566 453.04 570.833 452.48 573.446 452.16L592.326 450.16V455.28L575.926 457.12C573.686 457.387 572.006 457.867 570.886 458.56C569.82 459.2 569.286 460.293 569.286 461.84C569.286 463.44 569.846 464.64 570.966 465.44C572.14 466.187 573.953 466.56 576.406 466.56C579.446 466.56 582.086 466.187 584.326 465.44C586.566 464.64 588.326 463.413 589.606 461.76C590.886 460.107 591.526 457.973 591.526 455.36L592.646 455.52V462.08H591.526C590.46 465.44 588.406 468.08 585.366 470C582.38 471.867 578.62 472.8 574.086 472.8ZM632.999 472.8C628.572 472.8 624.945 471.707 622.119 469.52C619.292 467.333 617.479 464.427 616.679 460.8H614.839V452.8H616.359C616.359 455.467 616.919 457.733 618.039 459.6C619.159 461.413 620.732 462.773 622.759 463.68C624.839 464.533 627.265 464.96 630.039 464.96C632.919 464.96 635.345 464.56 637.319 463.76C639.345 462.907 640.892 461.547 641.959 459.68C643.025 457.813 643.559 455.307 643.559 452.16C643.559 448.96 643.025 446.427 641.959 444.56C640.892 442.693 639.345 441.36 637.319 440.56C635.345 439.76 632.972 439.36 630.199 439.36C625.772 439.36 622.359 440.427 619.959 442.56C617.559 444.64 616.359 447.813 616.359 452.08H614.839L614.279 443.28H616.359C617.159 439.6 618.945 436.72 621.719 434.64C624.545 432.507 628.279 431.44 632.919 431.44C637.025 431.44 640.519 432.32 643.399 434.08C646.279 435.787 648.465 438.187 649.959 441.28C651.452 444.373 652.199 448 652.199 452.16C652.199 456.213 651.452 459.813 649.959 462.96C648.519 466.053 646.359 468.48 643.479 470.24C640.652 471.947 637.159 472.8 632.999 472.8ZM616.359 485.6H607.719V432.24H615.639V444.72L616.359 445.76V485.6ZM700.028 472H691.468V450.4C691.468 446.4 690.534 443.547 688.668 441.84C686.801 440.08 683.788 439.2 679.628 439.2C676.481 439.2 673.974 439.76 672.108 440.88C670.241 441.947 668.881 443.493 668.028 445.52C667.228 447.493 666.828 449.893 666.828 452.72L665.148 452.8L665.548 444.4H667.308C667.788 442.16 668.641 440.053 669.868 438.08C671.148 436.107 672.934 434.507 675.228 433.28C677.521 432.053 680.348 431.44 683.708 431.44C687.334 431.44 690.348 432.187 692.748 433.68C695.201 435.12 697.014 437.12 698.188 439.68C699.414 442.187 700.028 445.067 700.028 448.32V472ZM666.828 472H658.188V418.4H666.828V472ZM716.437 472H707.797V432.24H716.437V472ZM716.437 427.6H707.797V418.4H716.437V427.6ZM744.518 472.8C740.144 472.8 736.331 471.947 733.078 470.24C729.824 468.48 727.291 466.053 725.478 462.96C723.718 459.813 722.838 456.213 722.838 452.16C722.838 448 723.718 444.373 725.478 441.28C727.291 438.187 729.824 435.787 733.078 434.08C736.331 432.32 740.144 431.44 744.518 431.44C748.518 431.44 752.064 432.133 755.158 433.52C758.251 434.907 760.678 436.853 762.438 439.36C764.251 441.813 765.158 444.72 765.158 448.08V448.88H756.598V448.4C756.598 445.307 755.531 443.013 753.398 441.52C751.264 439.973 748.251 439.2 744.358 439.2C739.878 439.2 736.598 440.293 734.518 442.48C732.438 444.613 731.398 447.84 731.398 452.16C731.398 456.427 732.438 459.653 734.518 461.84C736.598 463.973 739.878 465.04 744.358 465.04C748.251 465.04 751.264 464.293 753.398 462.8C755.531 461.253 756.598 458.933 756.598 455.84V455.28H765.158V456.16C765.158 459.467 764.251 462.373 762.438 464.88C760.678 467.387 758.251 469.333 755.158 470.72C752.064 472.107 748.518 472.8 744.518 472.8Z" fill="#F5F5F5"/>
<path d="M794.499 472H783.619V459.6H794.499V472Z" fill="#FEE303"/>
<path d="M153.5 287C134.7 287 112 300.667 103 307.5L103.5 506.5C129.5 503.5 130 498 146.5 491C163 484 212 523.5 236 525C255.2 526.2 276.667 513.167 285 506.5V301.5C277.833 306 259 315.9 241 319.5C218.5 324 177 287 153.5 287Z" fill="#FEE303" stroke="white" stroke-width="5"/>
</svg>
