<svg width="905" height="788" viewBox="0 0 905 788" fill="none" xmlns="http://www.w3.org/2000/svg">
<rect y="23" width="900" height="714" fill="black"/>
<path d="M324.64 348H316V294.4H325.28L349.28 325.76L356.24 335.76H356.88L356.48 326.08V294.4H365.12V348H355.84L331.68 316.72L324.96 307.28H324.32L324.64 316.56V348ZM410.709 348H402.789V337.76L402.229 337.52V323.92C402.229 320.613 401.429 318.32 399.829 317.04C398.283 315.707 395.589 315.04 391.749 315.04C388.069 315.04 385.323 315.68 383.509 316.96C381.696 318.24 380.789 320.347 380.789 323.28V323.6H372.229V323.28C372.229 320.24 373.029 317.547 374.629 315.2C376.229 312.8 378.523 310.907 381.509 309.52C384.549 308.133 388.176 307.44 392.389 307.44C396.603 307.44 400.043 308.16 402.709 309.6C405.429 310.987 407.429 312.907 408.709 315.36C410.043 317.813 410.709 320.64 410.709 323.84V348ZM384.789 348.8C380.683 348.8 377.403 347.893 374.949 346.08C372.549 344.213 371.349 341.653 371.349 338.4C371.349 336.32 371.856 334.587 372.869 333.2C373.936 331.76 375.429 330.64 377.349 329.84C379.269 329.04 381.536 328.48 384.149 328.16L403.029 326.16V331.28L386.629 333.12C384.389 333.387 382.709 333.867 381.589 334.56C380.523 335.2 379.989 336.293 379.989 337.84C379.989 339.44 380.549 340.64 381.669 341.44C382.843 342.187 384.656 342.56 387.109 342.56C390.149 342.56 392.789 342.187 395.029 341.44C397.269 340.64 399.029 339.413 400.309 337.76C401.589 336.107 402.229 333.973 402.229 331.36L403.349 331.52V338.08H402.229C401.163 341.44 399.109 344.08 396.069 346C393.083 347.867 389.323 348.8 384.789 348.8ZM444.502 348H435.382C431.115 348 427.729 346.96 425.222 344.88C422.769 342.8 421.542 339.36 421.542 334.56V299.52H430.102V334.08C430.102 336.533 430.689 338.187 431.862 339.04C433.035 339.84 434.849 340.24 437.302 340.24H444.502V348ZM444.502 315.44H414.822V308.24H444.502V315.44ZM458.546 348H449.906V308.24H458.546V348ZM458.546 303.6H449.906V294.4H458.546V303.6ZM486.867 348.8C482.494 348.8 478.627 347.947 475.267 346.24C471.96 344.48 469.374 342.053 467.507 338.96C465.694 335.813 464.787 332.213 464.787 328.16C464.787 324 465.694 320.373 467.507 317.28C469.374 314.187 471.96 311.787 475.267 310.08C478.627 308.32 482.494 307.44 486.867 307.44C491.347 307.44 495.24 308.32 498.547 310.08C501.854 311.787 504.414 314.187 506.227 317.28C508.094 320.373 509.027 324 509.027 328.16C509.027 332.213 508.094 335.813 506.227 338.96C504.414 342.053 501.854 344.48 498.547 346.24C495.24 347.947 491.347 348.8 486.867 348.8ZM486.867 341.12C491.72 341.12 495.214 340.027 497.347 337.84C499.48 335.6 500.547 332.373 500.547 328.16C500.547 323.947 499.48 320.72 497.347 318.48C495.214 316.187 491.72 315.04 486.867 315.04C482.067 315.04 478.6 316.187 476.467 318.48C474.334 320.72 473.267 323.947 473.267 328.16C473.267 332.373 474.334 335.6 476.467 337.84C478.6 340.027 482.067 341.12 486.867 341.12ZM556.817 348H548.177V326.4C548.177 322.667 547.27 319.867 545.457 318C543.697 316.133 540.737 315.2 536.577 315.2C532.257 315.2 529.057 316.32 526.977 318.56C524.95 320.747 523.937 324 523.937 328.32L522.417 328.4L522.017 320.56H523.777C524.204 318.32 525.057 316.213 526.337 314.24C527.67 312.213 529.484 310.587 531.777 309.36C534.124 308.08 536.977 307.44 540.337 307.44C544.017 307.44 547.084 308.187 549.537 309.68C551.99 311.173 553.804 313.173 554.977 315.68C556.204 318.187 556.817 320.987 556.817 324.08V348ZM523.937 348H515.297V308.24H523.217V320.72L523.937 321.12V348ZM602.116 348H594.196V337.76L593.636 337.52V323.92C593.636 320.613 592.836 318.32 591.236 317.04C589.689 315.707 586.996 315.04 583.156 315.04C579.476 315.04 576.729 315.68 574.916 316.96C573.102 318.24 572.196 320.347 572.196 323.28V323.6H563.636V323.28C563.636 320.24 564.436 317.547 566.036 315.2C567.636 312.8 569.929 310.907 572.916 309.52C575.956 308.133 579.582 307.44 583.796 307.44C588.009 307.44 591.449 308.16 594.116 309.6C596.836 310.987 598.836 312.907 600.116 315.36C601.449 317.813 602.116 320.64 602.116 323.84V348ZM576.196 348.8C572.089 348.8 568.809 347.893 566.356 346.08C563.956 344.213 562.756 341.653 562.756 338.4C562.756 336.32 563.262 334.587 564.276 333.2C565.342 331.76 566.836 330.64 568.756 329.84C570.676 329.04 572.942 328.48 575.556 328.16L594.436 326.16V331.28L578.036 333.12C575.796 333.387 574.116 333.867 572.996 334.56C571.929 335.2 571.396 336.293 571.396 337.84C571.396 339.44 571.956 340.64 573.076 341.44C574.249 342.187 576.062 342.56 578.516 342.56C581.556 342.56 584.196 342.187 586.436 341.44C588.676 340.64 590.436 339.413 591.716 337.76C592.996 336.107 593.636 333.973 593.636 331.36L594.756 331.52V338.08H593.636C592.569 341.44 590.516 344.08 587.476 346C584.489 347.867 580.729 348.8 576.196 348.8ZM618.468 348H609.828V294.4H618.468V348ZM340.64 446.8C335.413 446.8 330.827 445.68 326.88 443.44C322.933 441.147 319.867 437.947 317.68 433.84C315.493 429.68 314.4 424.8 314.4 419.2C314.4 413.6 315.573 408.747 317.92 404.64C320.267 400.48 323.573 397.28 327.84 395.04C332.107 392.747 337.093 391.6 342.8 391.6C347.867 391.6 352.32 392.427 356.16 394.08C360.053 395.68 363.093 397.973 365.28 400.96C367.467 403.947 368.56 407.52 368.56 411.68V412.32H359.04V411.68C359.04 407.84 357.68 404.933 354.96 402.96C352.24 400.933 348.107 399.92 342.56 399.92C338.24 399.92 334.667 400.613 331.84 402C329.067 403.333 326.987 405.413 325.6 408.24C324.213 411.067 323.52 414.72 323.52 419.2C323.52 423.627 324.187 427.28 325.52 430.16C326.907 432.987 328.96 435.093 331.68 436.48C334.453 437.813 337.947 438.48 342.16 438.48C346.427 438.48 349.867 438.08 352.48 437.28C355.093 436.427 356.987 435.067 358.16 433.2C359.387 431.333 360 428.907 360 425.92V424.16L368.56 424.4V425.68L361.44 434.4H360.16C359.413 437.013 358.16 439.253 356.4 441.12C354.693 442.987 352.507 444.4 349.84 445.36C347.227 446.32 344.16 446.8 340.64 446.8ZM368.56 446H360.72V432.4L360 431.28V419.68H368.56V446ZM368.56 425.2H340.16V418.64H368.56V425.2ZM395.844 446.8C391.524 446.8 387.737 446 384.484 444.4C381.23 442.8 378.697 440.453 376.884 437.36C375.124 434.267 374.244 430.533 374.244 426.16C374.244 422 375.124 418.373 376.884 415.28C378.697 412.187 381.204 409.787 384.404 408.08C387.604 406.32 391.364 405.44 395.684 405.44C399.79 405.44 403.39 406.187 406.484 407.68C409.63 409.12 412.057 411.253 413.764 414.08C415.524 416.853 416.404 420.267 416.404 424.32C416.404 425.013 416.377 425.68 416.324 426.32C416.27 426.907 416.19 427.493 416.084 428.08H379.764V423.28H410.404L408.164 426.24C408.217 425.707 408.244 425.2 408.244 424.72C408.244 424.187 408.244 423.653 408.244 423.12C408.244 419.44 407.177 416.72 405.044 414.96C402.964 413.147 399.79 412.24 395.524 412.24C390.777 412.24 387.39 413.333 385.364 415.52C383.337 417.707 382.324 420.853 382.324 424.96V427.04C382.324 431.2 383.337 434.373 385.364 436.56C387.39 438.747 390.804 439.84 395.604 439.84C399.764 439.84 402.75 439.2 404.564 437.92C406.43 436.587 407.364 434.747 407.364 432.4V431.76H416.004V432.48C416.004 435.307 415.124 437.813 413.364 440C411.657 442.133 409.284 443.813 406.244 445.04C403.257 446.213 399.79 446.8 395.844 446.8ZM443.195 446.8C438.822 446.8 434.955 445.947 431.595 444.24C428.288 442.48 425.702 440.053 423.835 436.96C422.022 433.813 421.115 430.213 421.115 426.16C421.115 422 422.022 418.373 423.835 415.28C425.702 412.187 428.288 409.787 431.595 408.08C434.955 406.32 438.822 405.44 443.195 405.44C447.675 405.44 451.568 406.32 454.875 408.08C458.182 409.787 460.742 412.187 462.555 415.28C464.422 418.373 465.355 422 465.355 426.16C465.355 430.213 464.422 433.813 462.555 436.96C460.742 440.053 458.182 442.48 454.875 444.24C451.568 445.947 447.675 446.8 443.195 446.8ZM443.195 439.12C448.048 439.12 451.542 438.027 453.675 435.84C455.808 433.6 456.875 430.373 456.875 426.16C456.875 421.947 455.808 418.72 453.675 416.48C451.542 414.187 448.048 413.04 443.195 413.04C438.395 413.04 434.928 414.187 432.795 416.48C430.662 418.72 429.595 421.947 429.595 426.16C429.595 430.373 430.662 433.6 432.795 435.84C434.928 438.027 438.395 439.12 443.195 439.12ZM492.505 460.4C488.558 460.4 485.092 459.787 482.105 458.56C479.118 457.387 476.772 455.68 475.065 453.44C473.412 451.2 472.585 448.48 472.585 445.28H481.145C481.145 447.2 481.545 448.747 482.345 449.92C483.145 451.093 484.398 451.92 486.105 452.4C487.865 452.933 490.158 453.2 492.985 453.2C496.025 453.2 498.425 452.853 500.185 452.16C501.998 451.52 503.305 450.373 504.105 448.72C504.905 447.067 505.305 444.773 505.305 441.84V418.56L505.945 418V406.24H513.865V441.36C513.865 445.787 512.985 449.387 511.225 452.16C509.465 454.987 506.985 457.067 503.785 458.4C500.585 459.733 496.825 460.4 492.505 460.4ZM488.905 442.4C484.958 442.4 481.572 441.627 478.745 440.08C475.972 438.533 473.812 436.373 472.265 433.6C470.772 430.827 470.025 427.6 470.025 423.92C470.025 420.24 470.798 417.013 472.345 414.24C473.945 411.467 476.185 409.307 479.065 407.76C481.998 406.213 485.465 405.44 489.465 405.44C493.625 405.44 497.145 406.373 500.025 408.24C502.958 410.053 504.772 412.693 505.465 416.16H507.305L506.825 423.12H505.305C505.305 420.88 504.772 419.013 503.705 417.52C502.638 415.973 501.118 414.827 499.145 414.08C497.172 413.333 494.772 412.96 491.945 412.96C489.225 412.96 486.852 413.307 484.825 414C482.852 414.693 481.332 415.84 480.265 417.44C479.252 418.987 478.745 421.147 478.745 423.92C478.745 426.64 479.252 428.8 480.265 430.4C481.278 432 482.745 433.173 484.665 433.92C486.638 434.613 488.985 434.96 491.705 434.96C496.078 434.96 499.438 434.053 501.785 432.24C504.132 430.427 505.305 427.76 505.305 424.24H506.825V432.08H504.745C504.052 435.12 502.372 437.6 499.705 439.52C497.038 441.44 493.438 442.4 488.905 442.4ZM530.499 446H521.859V406.24H529.779V417.52L530.499 417.92V446ZM530.499 423.68H528.579V416.96H530.339C530.713 414.773 531.459 412.827 532.579 411.12C533.699 409.36 535.193 407.973 537.059 406.96C538.979 405.947 541.299 405.44 544.019 405.44C547.059 405.44 549.539 406.08 551.459 407.36C553.379 408.64 554.766 410.347 555.619 412.48C556.526 414.613 556.979 416.933 556.979 419.44V424.64H548.419V421.12C548.419 418.24 547.779 416.133 546.499 414.8C545.219 413.467 543.086 412.8 540.099 412.8C536.686 412.8 534.233 413.733 532.739 415.6C531.246 417.467 530.499 420.16 530.499 423.68ZM600.006 446H592.086V435.76L591.526 435.52V421.92C591.526 418.613 590.726 416.32 589.126 415.04C587.58 413.707 584.886 413.04 581.046 413.04C577.366 413.04 574.62 413.68 572.806 414.96C570.993 416.24 570.086 418.347 570.086 421.28V421.6H561.526V421.28C561.526 418.24 562.326 415.547 563.926 413.2C565.526 410.8 567.82 408.907 570.806 407.52C573.846 406.133 577.473 405.44 581.686 405.44C585.9 405.44 589.34 406.16 592.006 407.6C594.726 408.987 596.726 410.907 598.006 413.36C599.34 415.813 600.006 418.64 600.006 421.84V446ZM574.086 446.8C569.98 446.8 566.7 445.893 564.246 444.08C561.846 442.213 560.646 439.653 560.646 436.4C560.646 434.32 561.153 432.587 562.166 431.2C563.233 429.76 564.726 428.64 566.646 427.84C568.566 427.04 570.833 426.48 573.446 426.16L592.326 424.16V429.28L575.926 431.12C573.686 431.387 572.006 431.867 570.886 432.56C569.82 433.2 569.286 434.293 569.286 435.84C569.286 437.44 569.846 438.64 570.966 439.44C572.14 440.187 573.953 440.56 576.406 440.56C579.446 440.56 582.086 440.187 584.326 439.44C586.566 438.64 588.326 437.413 589.606 435.76C590.886 434.107 591.526 431.973 591.526 429.36L592.646 429.52V436.08H591.526C590.46 439.44 588.406 442.08 585.366 444C582.38 445.867 578.62 446.8 574.086 446.8ZM632.999 446.8C628.572 446.8 624.945 445.707 622.119 443.52C619.292 441.333 617.479 438.427 616.679 434.8H614.839V426.8H616.359C616.359 429.467 616.919 431.733 618.039 433.6C619.159 435.413 620.732 436.773 622.759 437.68C624.839 438.533 627.265 438.96 630.039 438.96C632.919 438.96 635.345 438.56 637.319 437.76C639.345 436.907 640.892 435.547 641.959 433.68C643.025 431.813 643.559 429.307 643.559 426.16C643.559 422.96 643.025 420.427 641.959 418.56C640.892 416.693 639.345 415.36 637.319 414.56C635.345 413.76 632.972 413.36 630.199 413.36C625.772 413.36 622.359 414.427 619.959 416.56C617.559 418.64 616.359 421.813 616.359 426.08H614.839L614.279 417.28H616.359C617.159 413.6 618.945 410.72 621.719 408.64C624.545 406.507 628.279 405.44 632.919 405.44C637.025 405.44 640.519 406.32 643.399 408.08C646.279 409.787 648.465 412.187 649.959 415.28C651.452 418.373 652.199 422 652.199 426.16C652.199 430.213 651.452 433.813 649.959 436.96C648.519 440.053 646.359 442.48 643.479 444.24C640.652 445.947 637.159 446.8 632.999 446.8ZM616.359 459.6H607.719V406.24H615.639V418.72L616.359 419.76V459.6ZM700.028 446H691.468V424.4C691.468 420.4 690.534 417.547 688.668 415.84C686.801 414.08 683.788 413.2 679.628 413.2C676.481 413.2 673.974 413.76 672.108 414.88C670.241 415.947 668.881 417.493 668.028 419.52C667.228 421.493 666.828 423.893 666.828 426.72L665.148 426.8L665.548 418.4H667.308C667.788 416.16 668.641 414.053 669.868 412.08C671.148 410.107 672.934 408.507 675.228 407.28C677.521 406.053 680.348 405.44 683.708 405.44C687.334 405.44 690.348 406.187 692.748 407.68C695.201 409.12 697.014 411.12 698.188 413.68C699.414 416.187 700.028 419.067 700.028 422.32V446ZM666.828 446H658.188V392.4H666.828V446ZM716.437 446H707.797V406.24H716.437V446ZM716.437 401.6H707.797V392.4H716.437V401.6ZM744.518 446.8C740.144 446.8 736.331 445.947 733.078 444.24C729.824 442.48 727.291 440.053 725.478 436.96C723.718 433.813 722.838 430.213 722.838 426.16C722.838 422 723.718 418.373 725.478 415.28C727.291 412.187 729.824 409.787 733.078 408.08C736.331 406.32 740.144 405.44 744.518 405.44C748.518 405.44 752.064 406.133 755.158 407.52C758.251 408.907 760.678 410.853 762.438 413.36C764.251 415.813 765.158 418.72 765.158 422.08V422.88H756.598V422.4C756.598 419.307 755.531 417.013 753.398 415.52C751.264 413.973 748.251 413.2 744.358 413.2C739.878 413.2 736.598 414.293 734.518 416.48C732.438 418.613 731.398 421.84 731.398 426.16C731.398 430.427 732.438 433.653 734.518 435.84C736.598 437.973 739.878 439.04 744.358 439.04C748.251 439.04 751.264 438.293 753.398 436.8C755.531 435.253 756.598 432.933 756.598 429.84V429.28H765.158V430.16C765.158 433.467 764.251 436.373 762.438 438.88C760.678 441.387 758.251 443.333 755.158 444.72C752.064 446.107 748.518 446.8 744.518 446.8Z" fill="#F5F5F5"/>
<path d="M794.499 446H783.619V433.6H794.499V446Z" fill="#FEE303"/>
<path d="M153.5 261C134.7 261 112 274.667 103 281.5L103.5 480.5C129.5 477.5 130 472 146.5 465C163 458 212 497.5 236 499C255.2 500.2 276.667 487.167 285 480.5V275.5C277.833 280 259 289.9 241 293.5C218.5 298 177 261 153.5 261Z" fill="#FEE303" stroke="white" stroke-width="5"/>
</svg>
