<svg width="668" height="668" viewBox="0 0 668 668" fill="none" xmlns="http://www.w3.org/2000/svg">
<rect width="668" height="668" fill="#D9D9D9"/>
<g clip-path="url(#clip0_373_526)">
<path d="M43.2705 296.314C1.91757 358.318 79.9745 643.465 151.774 691.35C223.573 739.236 495.091 933.619 536.444 871.615C577.797 809.61 722.517 748.16 650.717 700.274C191.41 567.744 84.6234 234.309 43.2705 296.314Z" fill="#38A3A5"/>
<path d="M673.576 661.144C673.576 710.574 540.279 745 483.103 745C425.927 745 379.576 704.929 379.576 655.5C379.576 606.071 425.927 566 483.103 566C540.279 566 598.762 630.908 673.576 661.144Z" fill="#3891A5" fill-opacity="0.68"/>
</g>
<path d="M171.339 205.484V177.717H161V174H185.875V177.717H175.492V205.484H171.339ZM188.058 178.447V174H191.911V178.447H188.058ZM188.058 205.484V182.676H191.911V205.484H188.058ZM198.12 205.484V174H202.272V189.614L217.856 174H223.486L210.321 186.758L224.064 205.484H218.583L207.41 189.549L202.272 194.575V205.484H198.12ZM226.484 190.065C226.484 188.561 227.011 187.28 228.068 186.22C229.137 185.161 230.415 184.631 231.899 184.631C233.397 184.631 234.675 185.161 235.731 186.22C236.801 187.28 237.336 188.561 237.336 190.065C237.336 191.568 236.801 192.857 235.731 193.93C234.675 194.99 233.397 195.519 231.899 195.519C230.415 195.519 229.137 194.99 228.068 193.93C227.011 192.857 226.484 191.568 226.484 190.065ZM250.887 205.484V177.717H240.548V174H265.422V177.717H255.04V205.484H250.887ZM279.166 202.671C277.738 203.887 276.362 204.747 275.033 205.248C273.721 205.749 272.308 206 270.795 206C268.298 206 266.379 205.392 265.037 204.175C263.696 202.943 263.025 201.375 263.025 199.472C263.025 198.354 263.274 197.337 263.773 196.421C264.288 195.491 264.951 194.746 265.765 194.188C266.592 193.629 267.52 193.207 268.548 192.921C269.303 192.72 270.446 192.527 271.973 192.341C275.084 191.968 277.374 191.525 278.844 191.009C278.859 190.48 278.865 190.143 278.865 190.001C278.865 188.425 278.501 187.316 277.773 186.671C276.79 185.798 275.327 185.362 273.385 185.362C271.573 185.362 270.231 185.683 269.362 186.328C268.505 186.957 267.87 188.082 267.456 189.699L263.689 189.184C264.031 187.566 264.595 186.264 265.379 185.276C266.164 184.273 267.298 183.508 268.783 182.978C270.268 182.433 271.986 182.162 273.941 182.162C275.882 182.162 277.46 182.39 278.673 182.849C279.886 183.307 280.778 183.887 281.349 184.588C281.919 185.276 282.319 186.149 282.547 187.208C282.676 187.866 282.74 189.055 282.74 190.773V195.928C282.74 199.521 282.819 201.797 282.976 202.757C283.147 203.701 283.475 204.61 283.961 205.484H279.936C279.536 204.682 279.28 203.745 279.166 202.671ZM278.844 194.037C277.446 194.61 275.347 195.097 272.55 195.499C270.966 195.727 269.847 195.985 269.189 196.271C268.533 196.557 268.026 196.979 267.669 197.538C267.313 198.082 267.134 198.69 267.134 199.363C267.134 200.394 267.52 201.253 268.29 201.94C269.075 202.628 270.216 202.971 271.716 202.971C273.199 202.971 274.52 202.649 275.676 202.005C276.832 201.347 277.681 200.451 278.223 199.321C278.637 198.447 278.844 197.158 278.844 195.455V194.037ZM289.055 205.484V174H293.208V189.614L308.792 174H314.421L301.257 186.758L315 205.484H309.52L298.346 189.549L293.208 194.575V205.484H289.055Z" fill="#000910"/>
<ellipse cx="231.5" cy="191" rx="6.5" ry="6" fill="#38A3A5"/>
<g filter="url(#filter0_dii_373_526)">
<path d="M140.045 308.507C140.045 308.507 154.35 281.857 152.763 262.126C152.763 262.126 159.121 252 190.385 252C221.648 252 230.652 258.93 230.652 258.93C230.652 258.93 236.064 299.443 243.484 306.907C243.484 306.907 208.4 313.837 189.328 313.837C170.255 313.837 140.045 308.507 140.045 308.507Z" fill="url(#paint0_linear_373_526)"/>
</g>
<g filter="url(#filter1_dii_373_526)">
<path d="M244.033 471.371C244.033 471.371 228.56 497.454 229.411 517.225C229.411 517.225 222.599 527.101 191.007 525.898C159.416 524.696 150.578 517.438 150.578 517.438C150.578 517.438 146.658 476.73 139.444 468.987C139.444 468.987 175.162 463.414 194.437 464.146C213.713 464.878 244.033 471.371 244.033 471.371Z" fill="url(#paint1_linear_373_526)"/>
</g>
<path d="M260.301 374.271H266.284C269.993 374.271 273 371.269 273 367.565V350.038C273 346.335 269.993 343.333 266.284 343.333H260.301C256.591 343.333 253.584 346.335 253.584 350.038V367.565C253.584 371.269 256.591 374.271 260.301 374.271Z" fill="#E3DEDA"/>
<g filter="url(#filter2_dii_373_526)">
<path d="M237.89 306.394H143.768C127.327 306.394 114 319.7 114 336.115V443.53C114 459.944 127.327 473.251 143.768 473.251H237.89C254.33 473.251 267.658 459.944 267.658 443.53V336.115C267.658 319.7 254.33 306.394 237.89 306.394Z" fill="url(#paint2_linear_373_526)"/>
</g>
<path d="M240.207 317.537H145.182C134.221 317.537 125.336 326.408 125.336 337.352V443.314C125.336 454.258 134.221 463.129 145.182 463.129H240.207C251.168 463.129 260.054 454.258 260.054 443.314V337.352C260.054 326.408 251.168 317.537 240.207 317.537Z" fill="#3F4953"/>
<path d="M233.657 325.143H150.93C140.821 325.143 132.627 333.324 132.627 343.417V436.869C132.627 446.962 140.821 455.143 150.93 455.143H233.657C243.765 455.143 251.96 446.962 251.96 436.869V343.417C251.96 333.324 243.765 325.143 233.657 325.143Z" fill="#030C10" stroke="black" stroke-width="0.5" stroke-miterlimit="10"/>
<path d="M212.035 390.136C212.035 417.01 227.563 439.757 248.972 447.412C251.16 444.331 252.333 440.646 252.328 436.87V343.421C252.333 339.643 251.159 335.957 248.968 332.875C227.563 340.523 212.035 363.284 212.035 390.136Z" fill="#38A3A5"/>
<path d="M147.494 378.487H148.546V359.049H147.494C146.145 359.857 143.393 361.703 142.151 362.484V363.669C143.46 362.848 146.469 360.854 147.467 360.248H147.494V378.487ZM161.39 358.766C156.088 358.766 152.715 362.646 152.715 368.761C152.715 374.904 156.075 378.77 161.39 378.77C166.706 378.77 170.066 374.904 170.066 368.761C170.066 362.646 166.693 358.766 161.39 358.766ZM161.39 359.763C166.018 359.763 168.973 363.265 168.973 368.761C168.973 374.271 166.018 377.773 161.39 377.773C156.763 377.773 153.808 374.271 153.808 368.761C153.808 363.265 156.749 359.763 161.39 359.763ZM179.955 378.595C180.441 378.595 180.846 378.19 180.846 377.692C180.846 377.207 180.441 376.803 179.955 376.803C179.456 376.803 179.051 377.207 179.051 377.692C179.051 378.19 179.456 378.595 179.955 378.595ZM179.955 368.155C180.441 368.155 180.846 367.751 180.846 367.252C180.846 366.768 180.441 366.363 179.955 366.363C179.456 366.363 179.051 366.768 179.051 367.252C179.051 367.751 179.456 368.155 179.955 368.155ZM189.157 378.487H190.209V359.049H189.157C187.807 359.857 185.055 361.703 183.814 362.484V363.669C185.122 362.848 188.131 360.854 189.129 360.248H189.157V378.487ZM203.053 358.766C197.751 358.766 194.378 362.646 194.378 368.761C194.378 374.904 197.737 378.77 203.053 378.77C208.369 378.77 211.728 374.904 211.728 368.761C211.728 362.646 208.355 358.766 203.053 358.766ZM203.053 359.763C207.68 359.763 210.635 363.265 210.635 368.761C210.635 374.271 207.68 377.773 203.053 377.773C198.425 377.773 195.47 374.271 195.47 368.761C195.47 363.265 198.412 359.763 203.053 359.763Z" fill="white"/>
<path d="M150.499 354.136H146.414V346.754H145.988V354.53H150.499V354.136ZM155.616 348.926H155.194V352.288C155.194 353.474 154.391 354.239 153.327 354.239C152.307 354.239 151.633 353.603 151.633 352.509V348.926H151.217V352.574C151.217 353.829 152.032 354.616 153.241 354.616C154.169 354.616 154.957 354.066 155.205 353.312H155.221V354.53H155.616V348.926ZM156.862 354.53H157.283V351.183C157.283 350.02 158.028 349.217 159.113 349.217C160.154 349.217 160.839 349.869 160.839 350.952V354.53H161.26V350.898C161.26 349.637 160.445 348.84 159.21 348.84C158.254 348.84 157.521 349.373 157.267 350.144H157.256V348.926H156.862V354.53ZM162.955 354.573C163.149 354.573 163.311 354.411 163.311 354.212C163.311 354.018 163.149 353.856 162.955 353.856C162.755 353.856 162.593 354.018 162.593 354.212C162.593 354.411 162.755 354.573 162.955 354.573ZM168.546 348.851H168.961C168.989 347.795 169.819 347.024 170.926 347.024C172.016 347.024 172.858 347.783 172.858 348.77C172.858 349.492 172.539 350.02 171.341 351.275L168.573 354.206V354.53H173.576V354.142H169.188V354.12L171.622 351.55C172.906 350.208 173.284 349.578 173.284 348.753C173.284 347.563 172.259 346.641 170.937 346.641C169.577 346.641 168.573 347.568 168.546 348.851ZM178.039 354.53H178.46V352.584H179.695V352.196H178.46V346.727L177.844 346.733C176.279 348.84 175.119 350.505 174.029 352.191V352.584H178.039V354.53ZM174.499 352.186C175.481 350.677 176.652 348.991 178.028 347.159H178.039V352.196H174.499V352.186ZM185.124 354.616C186.614 354.616 187.628 353.506 187.628 351.728C187.628 349.95 186.614 348.84 185.124 348.84C183.635 348.84 182.626 349.95 182.626 351.728C182.626 353.506 183.635 354.616 185.124 354.616ZM185.124 354.239C183.878 354.239 183.047 353.285 183.047 351.728C183.047 350.171 183.878 349.217 185.124 349.217C186.371 349.217 187.208 350.171 187.208 351.728C187.208 353.28 186.371 354.239 185.124 354.239ZM193.036 350.618C192.869 349.616 192 348.84 190.786 348.84C189.285 348.84 188.314 349.96 188.314 351.728C188.314 353.511 189.28 354.616 190.791 354.616C191.984 354.616 192.863 353.905 193.03 352.886H192.615C192.442 353.689 191.746 354.239 190.791 354.239C189.534 354.239 188.735 353.274 188.735 351.728C188.735 350.192 189.534 349.217 190.791 349.217C191.757 349.217 192.453 349.815 192.62 350.618H193.036ZM194.272 347.455V348.926H193.435V349.287H194.272V353.252C194.272 354.179 194.623 354.54 195.443 354.54C195.508 354.54 195.853 354.535 195.891 354.53V354.163C195.869 354.163 195.529 354.169 195.502 354.169C194.936 354.169 194.687 353.905 194.687 353.242V349.287H195.815V348.926H194.687V347.455H194.272ZM197.569 354.573C197.763 354.573 197.926 354.411 197.926 354.212C197.926 354.018 197.763 353.856 197.569 353.856C197.37 353.856 197.208 354.018 197.208 354.212C197.208 354.411 197.37 354.573 197.569 354.573Z" fill="white"/>
<path d="M153.224 418.522V411.555H150.618V410.623H156.889V411.555H154.271V418.522H153.224ZM157.439 411.738V410.623H158.41V411.738H157.439ZM157.439 418.522V412.799H158.41V418.522H157.439ZM159.976 418.522V410.623H161.022V414.54L164.951 410.623H166.371L163.052 413.823L166.516 418.522H165.135L162.318 414.524L161.022 415.785V418.522H159.976ZM167.126 414.653C167.126 414.276 167.259 413.954 167.526 413.688C167.795 413.423 168.117 413.29 168.492 413.29C168.869 413.29 169.191 413.423 169.458 413.688C169.727 413.954 169.862 414.276 169.862 414.653C169.862 415.03 169.727 415.354 169.458 415.623C169.191 415.889 168.869 416.022 168.492 416.022C168.117 416.022 167.795 415.889 167.526 415.623C167.259 415.354 167.126 415.03 167.126 414.653ZM173.278 418.522V411.555H170.672V410.623H176.943V411.555H174.325V418.522H173.278ZM180.408 417.816C180.048 418.121 179.701 418.337 179.366 418.463C179.035 418.588 178.679 418.651 178.297 418.651C177.668 418.651 177.184 418.499 176.846 418.193C176.508 417.884 176.338 417.491 176.338 417.013C176.338 416.733 176.401 416.478 176.527 416.248C176.657 416.015 176.824 415.828 177.029 415.688C177.238 415.548 177.472 415.442 177.731 415.37C177.921 415.319 178.209 415.271 178.594 415.224C179.379 415.131 179.956 415.02 180.326 414.89C180.33 414.757 180.332 414.673 180.332 414.637C180.332 414.242 180.24 413.964 180.056 413.802C179.808 413.583 179.44 413.473 178.95 413.473C178.493 413.473 178.155 413.554 177.936 413.716C177.72 413.873 177.56 414.156 177.455 414.561L176.506 414.432C176.592 414.026 176.734 413.7 176.932 413.452C177.13 413.2 177.416 413.008 177.79 412.875C178.164 412.738 178.598 412.67 179.09 412.67C179.58 412.67 179.978 412.728 180.283 412.843C180.589 412.958 180.814 413.103 180.958 413.279C181.102 413.452 181.203 413.671 181.26 413.936C181.292 414.102 181.309 414.4 181.309 414.831V416.124C181.309 417.026 181.329 417.597 181.368 417.838C181.411 418.075 181.494 418.303 181.616 418.522H180.602C180.501 418.321 180.436 418.086 180.408 417.816ZM180.326 415.65C179.974 415.794 179.445 415.916 178.74 416.017C178.34 416.074 178.058 416.139 177.892 416.21C177.727 416.282 177.599 416.388 177.509 416.528C177.419 416.665 177.374 416.817 177.374 416.986C177.374 417.245 177.472 417.46 177.666 417.633C177.864 417.805 178.151 417.891 178.529 417.891C178.903 417.891 179.236 417.81 179.528 417.649C179.819 417.484 180.033 417.259 180.17 416.975C180.274 416.756 180.326 416.433 180.326 416.005V415.65ZM182.901 418.522V410.623H183.948V414.54L187.876 410.623H189.296L185.977 413.823L189.441 418.522H188.06L185.243 414.524L183.948 415.785V418.522H182.901Z" fill="white"/>
<path d="M170.287 389.514C168.495 389.626 166.791 390.332 165.446 391.521L168.799 394.868C169.237 394.544 169.748 394.333 170.287 394.253V389.514Z" fill="#BBBDBF"/>
<path d="M162.723 398.081C162.834 399.871 163.54 401.573 164.727 402.919L168.085 399.567C167.759 399.13 167.546 398.62 167.465 398.081H162.723Z" fill="#929497"/>
<path d="M164.732 392.234C163.539 393.577 162.832 395.28 162.723 397.072H167.465C167.547 396.532 167.76 396.021 168.085 395.582L164.732 392.234Z" fill="#A6A8AB"/>
<path d="M176.148 391.521C174.8 390.332 173.093 389.626 171.298 389.514V394.253C171.839 394.332 172.352 394.543 172.79 394.868L176.148 391.521Z" fill="#231F20"/>
<path d="M173.51 399.571L176.863 402.919C178.054 401.575 178.759 399.872 178.867 398.081H174.125C174.042 398.62 173.831 399.131 173.51 399.571Z" fill="#58595B"/>
<path d="M178.867 397.072C178.76 395.281 178.054 393.577 176.863 392.234L173.51 395.582C173.835 396.021 174.048 396.532 174.13 397.072H178.867Z" fill="#404041"/>
<path d="M165.446 403.632C166.79 404.821 168.495 405.526 170.287 405.634V400.899C169.749 400.816 169.239 400.605 168.799 400.284L165.446 403.632Z" fill="#808284"/>
<path d="M171.298 405.634C173.093 405.526 174.8 404.821 176.148 403.632L172.79 400.284C172.35 400.607 171.838 400.818 171.298 400.899V405.634Z" fill="#6D6E70"/>
<path style="mix-blend-mode:multiply" d="M159.23 405.981C159.23 406.922 155.738 407.685 151.43 407.685C147.122 407.685 143.628 406.922 143.628 405.981C143.628 405.039 147.12 404.277 151.43 404.277C155.74 404.277 159.23 405.039 159.23 405.981Z" fill="url(#paint3_radial_373_526)"/>
<path d="M151.43 406.254C149.898 406.255 148.401 405.801 147.127 404.952C145.854 404.103 144.861 402.895 144.274 401.483C143.688 400.07 143.535 398.515 143.833 397.015C144.132 395.516 144.869 394.138 145.952 393.057C147.036 391.975 148.415 391.239 149.918 390.94C151.42 390.642 152.977 390.796 154.392 391.381C155.807 391.966 157.016 392.958 157.867 394.229C158.717 395.501 159.171 396.996 159.171 398.526C159.168 400.574 158.352 402.539 156.901 403.988C155.45 405.436 153.482 406.252 151.43 406.254Z" fill="url(#paint4_radial_373_526)"/>
<path d="M151.43 390.853C152.95 390.853 154.435 391.303 155.699 392.146C156.963 392.989 157.948 394.188 158.529 395.59C159.111 396.991 159.263 398.534 158.966 400.022C158.67 401.511 157.938 402.877 156.863 403.95C155.789 405.023 154.42 405.754 152.929 406.05C151.439 406.346 149.893 406.194 148.489 405.614C147.085 405.033 145.885 404.05 145.041 402.788C144.196 401.526 143.746 400.043 143.746 398.526C143.748 396.491 144.558 394.541 145.998 393.103C147.439 391.664 149.393 390.855 151.43 390.853ZM151.43 390.736C149.887 390.735 148.378 391.192 147.095 392.047C145.811 392.903 144.811 394.119 144.22 395.543C143.629 396.966 143.474 398.533 143.775 400.044C144.076 401.555 144.819 402.943 145.91 404.033C147.001 405.123 148.391 405.865 149.905 406.166C151.418 406.466 152.987 406.312 154.413 405.723C155.839 405.133 157.057 404.135 157.915 402.854C158.772 401.572 159.23 400.066 159.23 398.526C159.23 397.503 159.029 396.49 158.637 395.545C158.245 394.599 157.67 393.741 156.946 393.017C156.222 392.294 155.362 391.72 154.415 391.329C153.469 390.937 152.454 390.736 151.43 390.736Z" fill="#8C98A0"/>
<path style="mix-blend-mode:screen" opacity="0.6" d="M151.375 400.126C151.375 400.671 151.214 401.204 150.91 401.658C150.607 402.111 150.176 402.464 149.671 402.673C149.167 402.882 148.612 402.936 148.076 402.83C147.54 402.724 147.048 402.461 146.662 402.075C146.276 401.69 146.013 401.199 145.907 400.664C145.8 400.129 145.855 399.575 146.064 399.071C146.273 398.567 146.627 398.137 147.081 397.834C147.535 397.531 148.068 397.369 148.615 397.369C148.977 397.369 149.336 397.441 149.671 397.579C150.006 397.718 150.311 397.921 150.567 398.177C150.823 398.433 151.027 398.737 151.165 399.071C151.304 399.406 151.375 399.764 151.375 400.126Z" fill="url(#paint5_radial_373_526)"/>
<path style="mix-blend-mode:screen" opacity="0.8" d="M148.634 395.373C148.633 395.504 148.594 395.632 148.521 395.74C148.448 395.848 148.344 395.933 148.223 395.983C148.102 396.032 147.969 396.045 147.84 396.019C147.712 395.994 147.594 395.93 147.502 395.838C147.409 395.745 147.347 395.627 147.321 395.499C147.296 395.371 147.309 395.238 147.359 395.117C147.409 394.997 147.494 394.893 147.603 394.821C147.712 394.748 147.84 394.709 147.971 394.709C148.058 394.709 148.145 394.727 148.225 394.76C148.306 394.793 148.379 394.842 148.44 394.904C148.502 394.966 148.551 395.039 148.584 395.119C148.617 395.2 148.634 395.286 148.634 395.373Z" fill="url(#paint6_radial_373_526)"/>
<path style="mix-blend-mode:screen" opacity="0.8" d="M148.815 400.804C148.815 401.008 148.755 401.207 148.641 401.376C148.528 401.545 148.367 401.677 148.179 401.755C147.99 401.833 147.783 401.853 147.583 401.813C147.383 401.773 147.199 401.675 147.055 401.531C146.911 401.387 146.813 401.203 146.774 401.003C146.734 400.804 146.755 400.597 146.833 400.409C146.912 400.221 147.044 400.06 147.214 399.948C147.384 399.835 147.583 399.775 147.787 399.775C147.922 399.775 148.056 399.802 148.181 399.854C148.306 399.906 148.419 399.981 148.515 400.077C148.61 400.172 148.686 400.286 148.738 400.411C148.789 400.535 148.815 400.669 148.815 400.804Z" fill="url(#paint7_radial_373_526)"/>
<path style="mix-blend-mode:screen" opacity="0.8" d="M153.679 394.189C153.679 394.434 153.607 394.673 153.47 394.877C153.334 395.081 153.14 395.239 152.914 395.333C152.687 395.427 152.438 395.451 152.197 395.404C151.956 395.356 151.735 395.238 151.562 395.064C151.389 394.892 151.27 394.671 151.223 394.431C151.175 394.191 151.199 393.942 151.293 393.715C151.387 393.489 151.546 393.296 151.75 393.159C151.954 393.023 152.194 392.951 152.439 392.951C152.768 392.951 153.083 393.082 153.315 393.314C153.548 393.546 153.679 393.861 153.679 394.189Z" fill="url(#paint8_radial_373_526)"/>
<path style="mix-blend-mode:screen" d="M152.248 396.779C152.248 396.829 152.233 396.878 152.205 396.92C152.177 396.962 152.137 396.994 152.091 397.013C152.044 397.033 151.993 397.038 151.944 397.028C151.894 397.018 151.849 396.994 151.813 396.958C151.778 396.923 151.753 396.878 151.744 396.828C151.734 396.779 151.739 396.728 151.758 396.681C151.777 396.635 151.81 396.595 151.852 396.567C151.894 396.539 151.943 396.524 151.993 396.524C152.027 396.524 152.06 396.53 152.091 396.543C152.122 396.556 152.151 396.574 152.174 396.598C152.198 396.622 152.217 396.65 152.229 396.681C152.242 396.712 152.248 396.745 152.248 396.779Z" fill="url(#paint9_radial_373_526)"/>
<path style="mix-blend-mode:screen" d="M149.994 397.231C149.994 397.334 149.963 397.435 149.906 397.521C149.848 397.607 149.767 397.674 149.671 397.713C149.575 397.753 149.47 397.763 149.369 397.743C149.267 397.723 149.174 397.673 149.101 397.6C149.027 397.527 148.978 397.434 148.957 397.333C148.937 397.231 148.947 397.126 148.987 397.031C149.027 396.935 149.094 396.853 149.18 396.796C149.266 396.739 149.367 396.708 149.471 396.708C149.61 396.708 149.743 396.763 149.841 396.861C149.939 396.959 149.994 397.092 149.994 397.231Z" fill="url(#paint10_radial_373_526)"/>
<path style="mix-blend-mode:screen" opacity="0.8" d="M158.871 398.008C158.871 398.726 158.658 399.427 158.259 400.024C157.859 400.621 157.291 401.086 156.627 401.361C155.963 401.636 155.231 401.708 154.526 401.568C153.821 401.428 153.173 401.082 152.665 400.574C152.156 400.067 151.81 399.42 151.669 398.716C151.529 398.012 151.601 397.282 151.877 396.618C152.152 395.955 152.617 395.388 153.215 394.989C153.813 394.59 154.516 394.377 155.235 394.377C155.713 394.377 156.186 394.471 156.627 394.653C157.069 394.835 157.469 395.103 157.807 395.44C158.145 395.777 158.413 396.177 158.595 396.618C158.778 397.059 158.872 397.531 158.871 398.008Z" fill="url(#paint11_radial_373_526)"/>
<path style="mix-blend-mode:screen" d="M152.187 399.568C154.469 397.245 157.037 396.037 158.051 396.767C158.025 396.729 157.995 396.694 157.961 396.663C157.03 395.75 154.356 396.964 151.989 399.375C149.621 401.786 148.452 404.479 149.395 405.392C149.428 405.424 149.464 405.453 149.501 405.479C148.742 404.481 149.904 401.894 152.187 399.568Z" fill="url(#paint12_linear_373_526)"/>
<path style="mix-blend-mode:screen" opacity="0.4" d="M152.875 399.008C154.002 395.255 154.028 391.912 152.943 391.34C152.988 391.345 153.033 391.354 153.076 391.369C154.283 391.741 154.307 395.196 153.13 399.088C151.953 402.979 150.022 405.83 148.815 405.456C148.772 405.443 148.731 405.425 148.692 405.404C149.902 405.545 151.741 402.76 152.875 399.008Z" fill="url(#paint13_linear_373_526)"/>
<path style="mix-blend-mode:screen" opacity="0.7" d="M151.088 402.097C147.709 401.174 145.207 399.474 145.344 398.227C145.324 398.268 145.308 398.312 145.295 398.356C144.95 399.613 147.511 401.416 151.015 402.358C154.519 403.3 157.638 403.064 157.98 401.812C157.994 401.77 158.005 401.727 158.011 401.682C157.487 402.824 154.474 403.019 151.088 402.097Z" fill="url(#paint14_linear_373_526)"/>
<path style="mix-blend-mode:screen" d="M150.996 394.526C154.186 393.848 157.011 394.328 157.473 395.595C157.47 395.545 157.463 395.495 157.452 395.446C157.16 394.074 154.238 393.532 150.937 394.236C147.636 394.94 145.186 396.621 145.479 397.998C145.49 398.046 145.505 398.093 145.521 398.139C145.425 396.795 147.808 395.208 150.996 394.526Z" fill="url(#paint15_linear_373_526)"/>
<path style="mix-blend-mode:screen" d="M154.331 396.322C156.736 399.472 157.304 403.109 155.67 404.625C155.74 404.583 155.809 404.538 155.875 404.489C157.73 403.076 157.214 399.286 154.724 396.014C152.234 392.741 148.707 391.254 146.854 392.664C146.788 392.713 146.725 392.767 146.665 392.824C148.565 391.661 151.928 393.172 154.331 396.322Z" fill="url(#paint16_linear_373_526)"/>
<path style="mix-blend-mode:screen" d="M147.851 398.74C147.733 394.973 148.869 391.877 150.416 391.616C150.359 391.612 150.301 391.612 150.244 391.616C148.61 391.668 147.381 394.867 147.504 398.761C147.627 402.654 149.051 405.76 150.685 405.71C150.743 405.707 150.8 405.701 150.857 405.691C149.287 405.526 147.966 402.506 147.851 398.74Z" fill="url(#paint17_linear_373_526)"/>
<path style="mix-blend-mode:screen" opacity="0.7" d="M153.588 404.098C150.466 405.218 147.507 404.976 146.802 403.577C146.814 403.634 146.83 403.69 146.849 403.744C147.401 405.282 150.466 405.585 153.706 404.423C156.945 403.26 159.107 401.075 158.553 399.538C158.534 399.484 158.511 399.431 158.485 399.38C158.834 400.906 156.705 402.977 153.588 404.098Z" fill="url(#paint18_linear_373_526)"/>
<g style="mix-blend-mode:screen">
<path d="M156.089 394.079C156.089 395.385 154.002 396.444 151.43 396.444C148.858 396.444 146.769 395.385 146.769 394.09C146.769 392.796 148.855 391.71 151.43 391.71C154.005 391.71 156.089 392.77 156.089 394.079Z" fill="url(#paint19_linear_373_526)"/>
</g>
<path d="M191.389 406.976C189.658 406.976 187.966 406.463 186.527 405.503C185.089 404.543 183.967 403.179 183.305 401.583C182.642 399.986 182.469 398.23 182.807 396.535C183.145 394.841 183.978 393.284 185.201 392.062C186.425 390.84 187.984 390.008 189.682 389.671C191.379 389.334 193.138 389.507 194.737 390.168C196.336 390.83 197.702 391.949 198.664 393.386C199.625 394.823 200.138 396.512 200.138 398.239C200.135 400.556 199.213 402.776 197.572 404.414C195.932 406.051 193.708 406.973 191.389 406.976Z" fill="url(#paint20_linear_373_526)"/>
<path d="M191.389 389.595C193.101 389.595 194.775 390.102 196.199 391.052C197.622 392.002 198.732 393.352 199.387 394.931C200.043 396.511 200.214 398.249 199.88 399.926C199.546 401.602 198.722 403.143 197.511 404.351C196.3 405.561 194.757 406.384 193.078 406.717C191.398 407.051 189.658 406.88 188.076 406.225C186.494 405.571 185.142 404.463 184.19 403.042C183.239 401.62 182.731 399.949 182.731 398.239C182.733 395.947 183.646 393.75 185.269 392.129C186.892 390.508 189.093 389.597 191.389 389.595ZM191.389 389.411C189.64 389.411 187.931 389.929 186.476 390.899C185.023 391.869 183.889 393.248 183.22 394.861C182.551 396.474 182.376 398.249 182.717 399.961C183.058 401.674 183.9 403.247 185.137 404.482C186.373 405.716 187.949 406.557 189.664 406.898C191.379 407.238 193.157 407.064 194.772 406.395C196.388 405.727 197.769 404.596 198.741 403.144C199.712 401.692 200.231 399.985 200.231 398.239C200.231 395.898 199.299 393.653 197.641 391.997C195.983 390.341 193.734 389.411 191.389 389.411Z" fill="#B2B4B7"/>
<path d="M197.836 398.239C197.836 399.512 197.458 400.757 196.749 401.816C196.041 402.874 195.034 403.699 193.856 404.186C192.678 404.674 191.382 404.801 190.131 404.553C188.88 404.304 187.731 403.691 186.83 402.791C185.928 401.891 185.314 400.744 185.065 399.495C184.817 398.246 184.944 396.952 185.432 395.776C185.92 394.6 186.747 393.594 187.807 392.887C188.867 392.18 190.114 391.802 191.389 391.802C192.236 391.802 193.074 391.968 193.857 392.291C194.639 392.615 195.35 393.089 195.948 393.686C196.548 394.284 197.022 394.994 197.346 395.775C197.67 396.556 197.836 397.394 197.836 398.239Z" fill="url(#paint21_linear_373_526)"/>
<path d="M191.389 403.573C190.332 403.573 189.3 403.26 188.421 402.674C187.543 402.088 186.858 401.255 186.454 400.28C186.049 399.306 185.943 398.233 186.15 397.199C186.356 396.164 186.864 395.214 187.612 394.468C188.359 393.722 189.31 393.214 190.347 393.008C191.383 392.802 192.457 392.908 193.433 393.312C194.409 393.715 195.244 394.399 195.83 395.276C196.418 396.153 196.731 397.184 196.731 398.239C196.729 399.653 196.165 401.009 195.164 402.009C194.163 403.009 192.805 403.571 191.389 403.573Z" fill="url(#paint22_radial_373_526)"/>
<path d="M191.389 393.09C192.409 393.09 193.406 393.392 194.254 393.958C195.102 394.524 195.764 395.328 196.154 396.269C196.544 397.21 196.646 398.245 196.447 399.244C196.248 400.243 195.757 401.161 195.036 401.881C194.315 402.601 193.395 403.092 192.395 403.29C191.395 403.489 190.357 403.387 189.415 402.997C188.472 402.607 187.667 401.947 187.1 401.1C186.533 400.254 186.231 399.258 186.231 398.239C186.231 396.874 186.774 395.564 187.742 394.598C188.709 393.632 190.021 393.09 191.389 393.09ZM191.389 392.722C190.296 392.722 189.227 393.046 188.318 393.652C187.41 394.258 186.701 395.12 186.283 396.128C185.865 397.136 185.755 398.246 185.969 399.316C186.182 400.386 186.708 401.369 187.481 402.141C188.254 402.913 189.239 403.438 190.311 403.651C191.382 403.864 192.494 403.755 193.503 403.337C194.513 402.919 195.376 402.212 195.983 401.305C196.591 400.398 196.915 399.331 196.915 398.239C196.915 396.776 196.333 395.373 195.296 394.338C194.26 393.303 192.854 392.722 191.389 392.722Z" fill="#F5F5F5"/>
<g style="mix-blend-mode:multiply" opacity="0.8">
<path d="M194.671 393.825C194.706 394.069 194.724 394.315 194.726 394.561C194.725 395.581 194.44 396.581 193.904 397.449C193.367 398.317 192.6 399.019 191.688 399.479C190.776 399.938 189.754 400.136 188.736 400.05C187.718 399.964 186.744 399.599 185.921 398.993C186.041 399.898 186.383 400.759 186.917 401.499C187.451 402.239 188.161 402.835 188.983 403.234C189.804 403.633 190.712 403.823 191.625 403.785C192.538 403.748 193.427 403.486 194.214 403.021C195 402.557 195.659 401.905 196.131 401.124C196.604 400.343 196.874 399.457 196.92 398.546C196.965 397.635 196.783 396.727 196.391 395.903C195.999 395.079 195.408 394.365 194.671 393.825Z" fill="url(#paint23_linear_373_526)"/>
</g>
<g filter="url(#filter3_dii_373_526)">
<path d="M148.892 286.54L236.113 286.617L233.704 274.63H151.338L148.892 286.54Z" fill="url(#paint24_linear_373_526)"/>
</g>
<g filter="url(#filter4_dii_373_526)">
<path d="M347.365 221.986C347.365 221.986 367.338 184.735 365.121 157.155C365.121 157.155 374 143 417.651 143C461.302 143 473.873 152.687 473.873 152.687C473.873 152.687 481.43 209.317 491.79 219.749C491.79 219.749 442.804 229.436 416.174 229.436C389.545 229.436 347.365 221.986 347.365 221.986Z" fill="url(#paint25_linear_373_526)"/>
</g>
<g filter="url(#filter5_dii_373_526)">
<path d="M492.556 449.639C492.556 449.639 470.951 486.098 472.14 513.734C472.14 513.734 462.628 527.539 418.52 525.858C374.411 524.177 362.071 514.032 362.071 514.032C362.071 514.032 356.598 457.13 346.526 446.307C346.526 446.307 396.396 438.517 423.309 439.54C450.221 440.564 492.556 449.639 492.556 449.639Z" fill="url(#paint26_linear_373_526)"/>
</g>
<path d="M515.269 313.912H523.623C528.801 313.912 533 309.715 533 304.539V280.039C533 274.862 528.801 270.666 523.623 270.666H515.269C510.09 270.666 505.892 274.862 505.892 280.039V304.539C505.892 309.715 510.09 313.912 515.269 313.912Z" fill="#E3DEDA"/>
<g filter="url(#filter6_dii_373_526)">
<path d="M483.978 219.032H352.563C329.608 219.032 311 237.632 311 260.576V410.722C311 433.666 329.608 452.267 352.563 452.267H483.978C506.933 452.267 525.541 433.666 525.541 410.722V260.576C525.541 237.632 506.933 219.032 483.978 219.032Z" fill="url(#paint27_linear_373_526)"/>
</g>
<path d="M487.214 234.608H354.538C339.234 234.608 326.828 247.008 326.828 262.306V410.421C326.828 425.718 339.234 438.119 354.538 438.119H487.214C502.518 438.119 514.924 425.718 514.924 410.421V262.306C514.924 247.008 502.518 234.608 487.214 234.608Z" fill="#3F4953"/>
<path d="M478.068 245.24H362.562C348.449 245.24 337.007 256.676 337.007 270.784V401.412C337.007 415.519 348.449 426.956 362.562 426.956H478.068C492.182 426.956 503.623 415.519 503.623 401.412V270.784C503.623 256.676 492.182 245.24 478.068 245.24Z" fill="#030C10" stroke="black" stroke-width="0.5" stroke-miterlimit="10"/>
<path d="M447.879 336.088C447.879 373.653 469.56 405.449 499.451 416.148C502.507 411.842 504.145 406.692 504.138 401.412V270.789C504.144 265.508 502.505 260.355 499.446 256.048C469.56 266.738 447.879 298.554 447.879 336.088Z" fill="#38A3A5"/>
<path d="M357.765 319.804H359.235V292.634H357.765C355.882 293.764 352.039 296.343 350.306 297.435V299.092C352.133 297.944 356.334 295.157 357.728 294.31H357.765V319.804ZM377.168 292.239C369.765 292.239 365.055 297.661 365.055 306.21C365.055 314.796 369.746 320.2 377.168 320.2C384.59 320.2 389.281 314.796 389.281 306.21C389.281 297.661 384.571 292.239 377.168 292.239ZM377.168 293.632C383.629 293.632 387.754 298.527 387.754 306.21C387.754 313.911 383.629 318.806 377.168 318.806C370.706 318.806 366.581 313.911 366.581 306.21C366.581 298.527 370.688 293.632 377.168 293.632ZM403.088 319.955C403.766 319.955 404.332 319.39 404.332 318.693C404.332 318.016 403.766 317.451 403.088 317.451C402.391 317.451 401.826 318.016 401.826 318.693C401.826 319.39 402.391 319.955 403.088 319.955ZM403.088 305.363C403.766 305.363 404.332 304.797 404.332 304.101C404.332 303.423 403.766 302.858 403.088 302.858C402.391 302.858 401.826 303.423 401.826 304.101C401.826 304.797 402.391 305.363 403.088 305.363ZM415.936 319.804H417.405V292.634H415.936C414.051 293.764 410.209 296.343 408.476 297.435V299.092C410.303 297.944 414.504 295.157 415.898 294.31H415.936V319.804ZM435.338 292.239C427.935 292.239 423.226 297.661 423.226 306.21C423.226 314.796 427.916 320.2 435.338 320.2C442.76 320.2 447.451 314.796 447.451 306.21C447.451 297.661 442.741 292.239 435.338 292.239ZM435.338 293.632C441.799 293.632 445.924 298.527 445.924 306.21C445.924 313.911 441.799 318.806 435.338 318.806C428.877 318.806 424.751 313.911 424.751 306.21C424.751 298.527 428.858 293.632 435.338 293.632Z" fill="white"/>
<path d="M361.961 285.767H356.257V275.449H355.662V286.317H361.961V285.767ZM369.104 278.484H368.516V283.184C368.516 284.841 367.394 285.91 365.909 285.91C364.485 285.91 363.543 285.022 363.543 283.493V278.484H362.963V283.583C362.963 285.338 364.101 286.437 365.788 286.437C367.085 286.437 368.185 285.669 368.532 284.615H368.554V286.317H369.104V278.484ZM370.845 286.317H371.432V281.64C371.432 280.013 372.472 278.891 373.987 278.891C375.441 278.891 376.398 279.802 376.398 281.316V286.317H376.986V281.241C376.986 279.478 375.848 278.363 374.123 278.363C372.789 278.363 371.764 279.109 371.41 280.186H371.395V278.484H370.845V286.317ZM379.352 286.377C379.623 286.377 379.849 286.151 379.849 285.873C379.849 285.602 379.623 285.376 379.352 285.376C379.073 285.376 378.847 285.602 378.847 285.873C378.847 286.151 379.073 286.377 379.352 286.377ZM387.158 278.379H387.738C387.776 276.903 388.936 275.825 390.481 275.825C392.003 275.825 393.179 276.887 393.179 278.266C393.179 279.275 392.734 280.013 391.061 281.768L387.196 285.865V286.317H394.181V285.775H388.055V285.745L391.453 282.152C393.246 280.277 393.774 279.395 393.774 278.243C393.774 276.579 392.342 275.291 390.496 275.291C388.597 275.291 387.196 276.586 387.158 278.379ZM400.412 286.317H401V283.598H402.725V283.056H401V275.411L400.141 275.419C397.956 278.363 396.335 280.691 394.813 283.048V283.598H400.412V286.317ZM395.469 283.041C396.84 280.932 398.475 278.575 400.397 276.014H400.412V283.056H395.469V283.041ZM410.305 286.437C412.385 286.437 413.801 284.886 413.801 282.401C413.801 279.915 412.385 278.363 410.305 278.363C408.225 278.363 406.817 279.915 406.817 282.401C406.817 284.886 408.225 286.437 410.305 286.437ZM410.305 285.91C408.565 285.91 407.404 284.577 407.404 282.401C407.404 280.224 408.565 278.891 410.305 278.891C412.046 278.891 413.214 280.224 413.214 282.401C413.214 284.57 412.046 285.91 410.305 285.91ZM421.352 280.849C421.118 279.448 419.905 278.363 418.21 278.363C416.115 278.363 414.759 279.93 414.759 282.401C414.759 284.894 416.107 286.437 418.217 286.437C419.882 286.437 421.11 285.443 421.344 284.02H420.764C420.523 285.142 419.551 285.91 418.217 285.91C416.461 285.91 415.346 284.562 415.346 282.401C415.346 280.254 416.461 278.891 418.217 278.891C419.566 278.891 420.538 279.727 420.771 280.849H421.352ZM423.077 276.428V278.484H421.909V278.989H423.077V284.532C423.077 285.828 423.567 286.332 424.712 286.332C424.803 286.332 425.285 286.325 425.338 286.317V285.805C425.308 285.805 424.833 285.813 424.795 285.813C424.004 285.813 423.657 285.443 423.657 284.517V278.989H425.232V278.484H423.657V276.428H423.077ZM427.681 286.377C427.952 286.377 428.179 286.151 428.179 285.873C428.179 285.602 427.952 285.376 427.681 285.376C427.402 285.376 427.176 285.602 427.176 285.873C427.176 286.151 427.402 286.377 427.681 286.377Z" fill="white"/>
<path d="M365.766 375.766V366.028H362.126V364.724H370.882V366.028H367.228V375.766H365.766ZM371.651 366.284V364.724H373.007V366.284H371.651ZM371.651 375.766V367.767H373.007V375.766H371.651ZM375.192 375.766V364.724H376.654V370.2L382.139 364.724H384.121L379.487 369.198L384.324 375.766H382.395L378.462 370.177L376.654 371.94V375.766H375.192ZM385.176 370.358C385.176 369.831 385.362 369.381 385.734 369.01C386.11 368.638 386.56 368.452 387.082 368.452C387.61 368.452 388.059 368.638 388.431 369.01C388.808 369.381 388.996 369.831 388.996 370.358C388.996 370.885 388.808 371.337 388.431 371.714C388.059 372.085 387.61 372.271 387.082 372.271C386.56 372.271 386.11 372.085 385.734 371.714C385.362 371.337 385.176 370.885 385.176 370.358ZM393.766 375.766V366.028H390.127V364.724H398.882V366.028H395.228V375.766H393.766ZM403.72 374.779C403.217 375.206 402.733 375.507 402.265 375.683C401.803 375.859 401.306 375.947 400.773 375.947C399.894 375.947 399.219 375.733 398.747 375.307C398.275 374.875 398.038 374.325 398.038 373.657C398.038 373.265 398.126 372.909 398.302 372.587C398.483 372.261 398.716 372 399.003 371.804C399.294 371.608 399.621 371.46 399.982 371.36C400.248 371.289 400.65 371.222 401.188 371.156C402.283 371.026 403.089 370.87 403.607 370.689C403.612 370.504 403.614 370.386 403.614 370.336C403.614 369.783 403.486 369.394 403.23 369.168C402.883 368.862 402.369 368.709 401.685 368.709C401.047 368.709 400.575 368.821 400.269 369.048C399.967 369.268 399.744 369.663 399.598 370.23L398.272 370.049C398.392 369.482 398.591 369.025 398.867 368.679C399.143 368.327 399.543 368.058 400.065 367.873C400.588 367.682 401.193 367.586 401.881 367.586C402.564 367.586 403.12 367.667 403.547 367.828C403.973 367.988 404.287 368.192 404.488 368.437C404.689 368.679 404.83 368.985 404.91 369.356C404.955 369.587 404.978 370.004 404.978 370.607V372.414C404.978 373.675 405.006 374.473 405.061 374.809C405.121 375.141 405.237 375.459 405.408 375.766H403.991C403.85 375.485 403.76 375.156 403.72 374.779ZM403.607 371.751C403.114 371.952 402.376 372.123 401.391 372.264C400.834 372.344 400.44 372.435 400.208 372.535C399.977 372.635 399.799 372.783 399.673 372.979C399.548 373.17 399.485 373.383 399.485 373.619C399.485 373.981 399.621 374.282 399.892 374.523C400.168 374.764 400.57 374.885 401.098 374.885C401.62 374.885 402.085 374.771 402.491 374.546C402.898 374.315 403.197 374.001 403.388 373.604C403.534 373.298 403.607 372.846 403.607 372.248V371.751ZM407.201 375.766V364.724H408.663V370.2L414.148 364.724H416.129L411.496 369.198L416.333 375.766H414.404L410.471 370.177L408.663 371.94V375.766H407.201Z" fill="white"/>
<path d="M389.59 335.219C387.088 335.375 384.709 336.362 382.831 338.023L387.513 342.703C388.124 342.25 388.838 341.955 389.59 341.843V335.219Z" fill="#BBBDBF"/>
<path d="M379.028 347.194C379.184 349.696 380.169 352.075 381.827 353.956L386.515 349.27C386.061 348.66 385.763 347.947 385.649 347.194H379.028Z" fill="#929497"/>
<path d="M381.833 339.021C380.168 340.897 379.181 343.279 379.028 345.783H385.649C385.764 345.028 386.062 344.314 386.515 343.7L381.833 339.021Z" fill="#A6A8AB"/>
<path d="M397.773 338.023C395.891 336.362 393.509 335.375 391.002 335.219V341.843C391.758 341.952 392.474 342.248 393.086 342.703L397.773 338.023Z" fill="#231F20"/>
<path d="M394.09 349.276L398.771 353.956C400.434 352.078 401.419 349.698 401.57 347.194H394.949C394.834 347.947 394.539 348.661 394.09 349.276Z" fill="#58595B"/>
<path d="M401.57 345.783C401.42 343.279 400.435 340.898 398.771 339.021L394.09 343.7C394.544 344.314 394.841 345.028 394.956 345.783H401.57Z" fill="#404041"/>
<path d="M382.831 354.953C384.708 356.615 387.088 357.601 389.59 357.751V351.133C388.839 351.016 388.127 350.722 387.513 350.274L382.831 354.953Z" fill="#808284"/>
<path d="M391.002 357.751C393.509 357.6 395.892 356.615 397.773 354.953L393.086 350.274C392.471 350.725 391.756 351.02 391.002 351.133V357.751Z" fill="#6D6E70"/>
<path style="mix-blend-mode:multiply" d="M374.151 358.236C374.151 359.552 369.275 360.619 363.261 360.619C357.246 360.619 352.367 359.552 352.367 358.236C352.367 356.92 357.243 355.854 363.261 355.854C369.279 355.854 374.151 356.92 374.151 358.236Z" fill="url(#paint28_radial_373_526)"/>
<path d="M363.261 358.618C361.122 358.619 359.032 357.985 357.253 356.798C355.475 355.611 354.089 353.923 353.27 351.948C352.451 349.974 352.237 347.801 352.654 345.704C353.071 343.608 354.101 341.682 355.613 340.17C357.125 338.659 359.052 337.629 361.149 337.212C363.247 336.795 365.421 337.01 367.396 337.828C369.372 338.646 371.06 340.032 372.248 341.81C373.436 343.588 374.069 345.677 374.069 347.815C374.065 350.679 372.925 353.425 370.899 355.45C368.873 357.475 366.126 358.614 363.261 358.618Z" fill="url(#paint29_radial_373_526)"/>
<path d="M363.261 337.091C365.383 337.091 367.457 337.719 369.221 338.898C370.985 340.076 372.361 341.751 373.173 343.711C373.985 345.67 374.197 347.827 373.783 349.907C373.37 351.987 372.347 353.898 370.847 355.398C369.347 356.898 367.435 357.919 365.354 358.333C363.273 358.747 361.115 358.534 359.155 357.723C357.194 356.911 355.519 355.537 354.34 353.773C353.161 352.009 352.532 349.936 352.532 347.815C352.534 344.971 353.665 342.245 355.677 340.235C357.688 338.224 360.416 337.093 363.261 337.091ZM363.261 336.926C361.106 336.926 358.999 337.564 357.208 338.76C355.416 339.955 354.019 341.656 353.194 343.646C352.369 345.635 352.153 347.825 352.573 349.937C352.993 352.05 354.03 353.99 355.553 355.513C357.077 357.037 359.018 358.074 361.131 358.494C363.244 358.915 365.435 358.699 367.425 357.875C369.416 357.051 371.118 355.655 372.315 353.865C373.512 352.074 374.151 349.968 374.151 347.815C374.151 346.385 373.87 344.969 373.323 343.648C372.775 342.327 371.974 341.127 370.962 340.115C369.951 339.105 368.75 338.302 367.429 337.755C366.107 337.208 364.691 336.926 363.261 336.926Z" fill="#8C98A0"/>
<path style="mix-blend-mode:screen" opacity="0.6" d="M363.184 350.053C363.184 350.815 362.959 351.56 362.535 352.193C362.111 352.827 361.509 353.321 360.805 353.613C360.101 353.904 359.325 353.98 358.578 353.832C357.83 353.683 357.143 353.316 356.604 352.777C356.065 352.238 355.697 351.551 355.549 350.804C355.4 350.057 355.476 349.282 355.768 348.578C356.06 347.874 356.554 347.272 357.188 346.848C357.822 346.425 358.567 346.199 359.33 346.199C359.836 346.199 360.337 346.299 360.805 346.493C361.273 346.686 361.698 346.97 362.056 347.328C362.414 347.685 362.697 348.11 362.891 348.578C363.085 349.045 363.184 349.546 363.184 350.053Z" fill="url(#paint30_radial_373_526)"/>
<path style="mix-blend-mode:screen" opacity="0.8" d="M359.356 343.409C359.355 343.591 359.301 343.77 359.199 343.921C359.096 344.073 358.952 344.191 358.783 344.261C358.614 344.33 358.428 344.348 358.248 344.312C358.069 344.276 357.905 344.187 357.776 344.058C357.647 343.928 357.559 343.764 357.523 343.584C357.488 343.405 357.506 343.219 357.577 343.051C357.647 342.882 357.765 342.738 357.917 342.636C358.069 342.535 358.248 342.48 358.431 342.48C358.553 342.48 358.673 342.505 358.786 342.551C358.898 342.598 359 342.667 359.086 342.752C359.172 342.839 359.24 342.941 359.287 343.054C359.333 343.166 359.356 343.287 359.356 343.409Z" fill="url(#paint31_radial_373_526)"/>
<path style="mix-blend-mode:screen" opacity="0.8" d="M359.61 351C359.61 351.284 359.525 351.563 359.367 351.799C359.209 352.036 358.984 352.22 358.721 352.329C358.458 352.438 358.168 352.466 357.889 352.41C357.61 352.354 357.354 352.217 357.153 352.016C356.952 351.814 356.815 351.557 356.76 351.278C356.705 351 356.733 350.71 356.843 350.447C356.952 350.185 357.137 349.96 357.374 349.803C357.611 349.645 357.89 349.561 358.174 349.562C358.363 349.562 358.55 349.599 358.724 349.672C358.899 349.744 359.057 349.85 359.19 349.984C359.324 350.117 359.429 350.276 359.501 350.45C359.573 350.624 359.61 350.811 359.61 351Z" fill="url(#paint32_radial_373_526)"/>
<path style="mix-blend-mode:screen" opacity="0.8" d="M366.401 341.754C366.401 342.096 366.3 342.431 366.11 342.715C365.919 343 365.649 343.222 365.332 343.353C365.016 343.484 364.668 343.518 364.332 343.451C363.996 343.385 363.687 343.219 363.445 342.977C363.203 342.736 363.038 342.427 362.971 342.091C362.904 341.756 362.939 341.408 363.07 341.091C363.201 340.775 363.423 340.505 363.708 340.314C363.992 340.124 364.327 340.023 364.67 340.023C365.129 340.023 365.568 340.206 365.893 340.53C366.218 340.855 366.401 341.295 366.401 341.754Z" fill="url(#paint33_radial_373_526)"/>
<path style="mix-blend-mode:screen" d="M364.403 345.373C364.403 345.444 364.382 345.512 364.343 345.571C364.304 345.629 364.248 345.675 364.184 345.701C364.118 345.729 364.047 345.735 363.978 345.722C363.909 345.708 363.846 345.674 363.796 345.625C363.746 345.575 363.712 345.512 363.699 345.443C363.685 345.374 363.692 345.302 363.719 345.237C363.746 345.172 363.792 345.117 363.85 345.078C363.908 345.039 363.977 345.018 364.047 345.018C364.094 345.018 364.14 345.026 364.184 345.044C364.227 345.062 364.267 345.088 364.3 345.121C364.333 345.154 364.359 345.193 364.377 345.237C364.395 345.28 364.403 345.327 364.403 345.373Z" fill="url(#paint34_radial_373_526)"/>
<path style="mix-blend-mode:screen" d="M361.256 346.005C361.256 346.15 361.213 346.29 361.132 346.411C361.052 346.531 360.938 346.625 360.804 346.68C360.671 346.735 360.524 346.75 360.382 346.721C360.24 346.693 360.11 346.624 360.008 346.521C359.906 346.419 359.836 346.289 359.808 346.147C359.78 346.006 359.794 345.859 359.85 345.725C359.905 345.592 359.999 345.478 360.119 345.397C360.239 345.317 360.38 345.274 360.525 345.274C360.719 345.274 360.905 345.352 361.042 345.488C361.179 345.625 361.256 345.811 361.256 346.005Z" fill="url(#paint35_radial_373_526)"/>
<path style="mix-blend-mode:screen" opacity="0.8" d="M373.65 347.091C373.65 348.095 373.353 349.076 372.795 349.91C372.237 350.744 371.444 351.395 370.517 351.779C369.589 352.163 368.568 352.264 367.584 352.068C366.599 351.872 365.694 351.389 364.984 350.679C364.275 349.969 363.791 349.065 363.595 348.081C363.399 347.097 363.5 346.076 363.884 345.149C364.268 344.222 364.919 343.43 365.753 342.872C366.588 342.315 367.57 342.017 368.574 342.017C369.241 342.016 369.901 342.147 370.517 342.402C371.133 342.657 371.693 343.031 372.164 343.502C372.636 343.973 373.01 344.533 373.265 345.149C373.52 345.765 373.651 346.425 373.65 347.091Z" fill="url(#paint36_radial_373_526)"/>
<path style="mix-blend-mode:screen" d="M364.317 349.273C367.504 346.025 371.089 344.337 372.505 345.357C372.468 345.304 372.427 345.255 372.38 345.212C371.08 343.935 367.346 345.633 364.041 349.003C360.736 352.372 359.103 356.137 360.42 357.413C360.466 357.458 360.516 357.498 360.568 357.535C359.508 356.14 361.131 352.524 364.317 349.273Z" fill="url(#paint37_linear_373_526)"/>
<path style="mix-blend-mode:screen" opacity="0.4" d="M365.279 348.489C366.852 343.244 366.888 338.571 365.374 337.772C365.437 337.778 365.498 337.791 365.559 337.811C367.244 338.331 367.277 343.162 365.634 348.601C363.991 354.04 361.295 358.026 359.61 357.502C359.55 357.484 359.493 357.46 359.438 357.43C361.127 357.627 363.695 353.734 365.279 348.489Z" fill="url(#paint38_linear_373_526)"/>
<path style="mix-blend-mode:screen" opacity="0.7" d="M362.784 352.806C358.066 351.517 354.573 349.141 354.764 347.397C354.736 347.455 354.713 347.516 354.695 347.578C354.214 349.335 357.789 351.856 362.681 353.172C367.574 354.488 371.929 354.159 372.406 352.409C372.426 352.35 372.441 352.289 372.449 352.228C371.718 353.824 367.511 354.097 362.784 352.806Z" fill="url(#paint39_linear_373_526)"/>
<path style="mix-blend-mode:screen" d="M362.655 342.224C367.109 341.276 371.053 341.947 371.698 343.718C371.693 343.648 371.684 343.579 371.669 343.51C371.261 341.592 367.182 340.835 362.573 341.819C357.964 342.803 354.543 345.153 354.952 347.078C354.968 347.144 354.988 347.21 355.011 347.275C354.876 345.396 358.204 343.178 362.655 342.224Z" fill="url(#paint40_linear_373_526)"/>
<path style="mix-blend-mode:screen" d="M367.31 344.734C370.668 349.138 371.461 354.222 369.18 356.341C369.279 356.282 369.374 356.218 369.467 356.15C372.057 354.175 371.336 348.878 367.86 344.304C364.383 339.73 359.458 337.65 356.871 339.621C356.779 339.69 356.691 339.765 356.607 339.845C359.261 338.219 363.955 340.332 367.31 344.734Z" fill="url(#paint41_linear_373_526)"/>
<path style="mix-blend-mode:screen" d="M358.263 348.114C358.099 342.849 359.685 338.522 361.845 338.157C361.765 338.152 361.685 338.152 361.605 338.157C359.323 338.229 357.608 342.701 357.779 348.144C357.951 353.586 359.939 357.927 362.22 357.858C362.301 357.854 362.381 357.845 362.46 357.831C360.268 357.601 358.425 353.379 358.263 348.114Z" fill="url(#paint42_linear_373_526)"/>
<path style="mix-blend-mode:screen" opacity="0.7" d="M366.273 355.604C361.914 357.17 357.783 356.831 356.798 354.877C356.815 354.956 356.837 355.034 356.864 355.11C357.635 357.259 361.914 357.683 366.438 356.058C370.961 354.432 373.98 351.379 373.206 349.23C373.179 349.155 373.147 349.081 373.11 349.01C373.598 351.142 370.625 354.038 366.273 355.604Z" fill="url(#paint43_linear_373_526)"/>
<g style="mix-blend-mode:screen">
<path d="M369.766 341.599C369.766 343.425 366.852 344.906 363.261 344.906C359.669 344.906 356.752 343.425 356.752 341.615C356.752 339.805 359.665 338.289 363.261 338.289C366.855 338.289 369.766 339.769 369.766 341.599Z" fill="url(#paint44_linear_373_526)"/>
</g>
<path d="M419.052 359.626C416.636 359.626 414.274 358.91 412.265 357.568C410.256 356.226 408.69 354.319 407.766 352.088C406.841 349.856 406.599 347.401 407.07 345.033C407.542 342.664 408.705 340.488 410.414 338.78C412.122 337.072 414.299 335.909 416.669 335.438C419.039 334.967 421.495 335.208 423.728 336.133C425.959 337.057 427.868 338.622 429.21 340.63C430.552 342.639 431.269 345 431.269 347.415C431.265 350.652 429.976 353.756 427.686 356.045C425.396 358.334 422.291 359.622 419.052 359.626Z" fill="url(#paint45_linear_373_526)"/>
<path d="M419.052 335.332C421.443 335.332 423.78 336.04 425.768 337.368C427.756 338.696 429.306 340.583 430.22 342.791C431.135 344.999 431.375 347.428 430.908 349.772C430.442 352.116 429.291 354.269 427.6 355.958C425.909 357.649 423.755 358.799 421.411 359.266C419.066 359.731 416.635 359.492 414.427 358.578C412.218 357.663 410.33 356.115 409.001 354.128C407.673 352.141 406.964 349.804 406.964 347.415C406.967 344.211 408.242 341.139 410.508 338.874C412.774 336.608 415.847 335.334 419.052 335.332ZM419.052 335.075C416.611 335.075 414.224 335.799 412.194 337.154C410.164 338.51 408.581 340.437 407.647 342.693C406.712 344.947 406.468 347.428 406.944 349.822C407.421 352.216 408.596 354.414 410.323 356.14C412.05 357.866 414.249 359.041 416.644 359.518C419.039 359.994 421.521 359.749 423.777 358.815C426.033 357.881 427.961 356.3 429.317 354.27C430.674 352.241 431.398 349.855 431.398 347.415C431.398 344.142 430.097 341.004 427.782 338.689C425.467 336.375 422.327 335.075 419.052 335.075Z" fill="#B2B4B7"/>
<path d="M428.054 347.415C428.054 349.194 427.527 350.934 426.537 352.414C425.548 353.894 424.142 355.047 422.497 355.728C420.852 356.409 419.043 356.587 417.296 356.24C415.55 355.893 413.946 355.036 412.688 353.777C411.428 352.519 410.571 350.916 410.224 349.17C409.876 347.425 410.055 345.616 410.736 343.971C411.418 342.327 412.571 340.922 414.052 339.933C415.532 338.945 417.272 338.417 419.053 338.417C420.235 338.416 421.406 338.649 422.498 339.101C423.591 339.553 424.583 340.215 425.419 341.051C426.256 341.886 426.919 342.879 427.371 343.971C427.823 345.062 428.055 346.233 428.054 347.415Z" fill="url(#paint46_linear_373_526)"/>
<path d="M419.052 354.87C417.577 354.87 416.135 354.433 414.908 353.614C413.682 352.795 412.726 351.63 412.162 350.268C411.597 348.906 411.449 347.407 411.737 345.96C412.025 344.514 412.735 343.186 413.778 342.143C414.822 341.1 416.15 340.39 417.597 340.103C419.044 339.815 420.544 339.963 421.907 340.527C423.269 341.091 424.434 342.047 425.254 343.273C426.074 344.499 426.511 345.94 426.511 347.415C426.508 349.391 425.721 351.286 424.323 352.683C422.925 354.081 421.03 354.868 419.052 354.87Z" fill="url(#paint47_radial_373_526)"/>
<path d="M419.052 340.217C420.477 340.217 421.869 340.639 423.053 341.43C424.237 342.221 425.161 343.345 425.706 344.66C426.251 345.976 426.393 347.423 426.116 348.819C425.838 350.215 425.152 351.498 424.144 352.505C423.138 353.512 421.854 354.197 420.457 354.475C419.061 354.752 417.613 354.61 416.296 354.066C414.981 353.521 413.856 352.598 413.064 351.414C412.273 350.23 411.851 348.839 411.851 347.415C411.851 345.506 412.61 343.675 413.961 342.325C415.311 340.975 417.143 340.217 419.052 340.217ZM419.052 339.702C417.526 339.702 416.035 340.155 414.766 341.002C413.497 341.85 412.508 343.054 411.924 344.464C411.34 345.873 411.187 347.424 411.485 348.92C411.783 350.415 412.518 351.79 413.596 352.869C414.676 353.947 416.05 354.681 417.547 354.979C419.044 355.277 420.595 355.124 422.005 354.54C423.415 353.957 424.62 352.968 425.468 351.7C426.316 350.431 426.768 348.94 426.768 347.415C426.768 345.37 425.956 343.408 424.509 341.962C423.062 340.515 421.099 339.702 419.052 339.702Z" fill="#F5F5F5"/>
<g style="mix-blend-mode:multiply" opacity="0.8">
<path d="M423.636 341.245C423.684 341.586 423.71 341.929 423.713 342.273C423.711 343.699 423.313 345.096 422.564 346.31C421.815 347.523 420.744 348.505 419.471 349.147C418.197 349.789 416.77 350.066 415.349 349.946C413.928 349.826 412.567 349.315 411.419 348.469C411.586 349.733 412.063 350.936 412.809 351.971C413.555 353.005 414.546 353.839 415.693 354.396C416.841 354.954 418.108 355.219 419.383 355.167C420.657 355.115 421.899 354.748 422.997 354.099C424.095 353.45 425.015 352.538 425.674 351.447C426.334 350.355 426.712 349.117 426.775 347.843C426.838 346.57 426.585 345.3 426.037 344.149C425.489 342.997 424.664 341.999 423.636 341.245Z" fill="url(#paint48_linear_373_526)"/>
</g>
<g filter="url(#filter7_dii_373_526)">
<path d="M359.716 191.28L481.498 191.388L478.134 174.632H363.132L359.716 191.28Z" fill="url(#paint49_linear_373_526)"/>
</g>
<defs>
<filter id="filter0_dii_373_526" x="103.374" y="233.664" width="176.782" height="135.179" filterUnits="userSpaceOnUse" color-interpolation-filters="sRGB">
<feFlood flood-opacity="0" result="BackgroundImageFix"/>
<feColorMatrix in="SourceAlpha" type="matrix" values="0 0 0 0 0 0 0 0 0 0 0 0 0 0 0 0 0 0 127 0" result="hardAlpha"/>
<feOffset dy="18.3356"/>
<feGaussianBlur stdDeviation="18.3356"/>
<feColorMatrix type="matrix" values="0 0 0 0 0.178039 0 0 0 0 0.174118 0 0 0 0 0.17098 0 0 0 0.513 0"/>
<feBlend mode="normal" in2="BackgroundImageFix" result="effect1_dropShadow_373_526"/>
<feBlend mode="normal" in="SourceGraphic" in2="effect1_dropShadow_373_526" result="shape"/>
<feColorMatrix in="SourceAlpha" type="matrix" values="0 0 0 0 0 0 0 0 0 0 0 0 0 0 0 0 0 0 127 0" result="hardAlpha"/>
<feOffset dy="8.8826"/>
<feGaussianBlur stdDeviation="4.4413"/>
<feComposite in2="hardAlpha" operator="arithmetic" k2="-1" k3="1"/>
<feColorMatrix type="matrix" values="0 0 0 0 1 0 0 0 0 1 0 0 0 0 1 0 0 0 1 0"/>
<feBlend mode="normal" in2="shape" result="effect2_innerShadow_373_526"/>
<feColorMatrix in="SourceAlpha" type="matrix" values="0 0 0 0 0 0 0 0 0 0 0 0 0 0 0 0 0 0 127 0" result="hardAlpha"/>
<feOffset dy="-8.8826"/>
<feGaussianBlur stdDeviation="4.4413"/>
<feComposite in2="hardAlpha" operator="arithmetic" k2="-1" k3="1"/>
<feColorMatrix type="matrix" values="0 0 0 0 0.538569 0 0 0 0 0.526706 0 0 0 0 0.517216 0 0 0 1 0"/>
<feBlend mode="normal" in2="effect2_innerShadow_373_526" result="effect3_innerShadow_373_526"/>
</filter>
<filter id="filter1_dii_373_526" x="102.5" y="445.608" width="178.478" height="135.809" filterUnits="userSpaceOnUse" color-interpolation-filters="sRGB">
<feFlood flood-opacity="0" result="BackgroundImageFix"/>
<feColorMatrix in="SourceAlpha" type="matrix" values="0 0 0 0 0 0 0 0 0 0 0 0 0 0 0 0 0 0 127 0" result="hardAlpha"/>
<feOffset dy="18.4724"/>
<feGaussianBlur stdDeviation="18.4724"/>
<feColorMatrix type="matrix" values="0 0 0 0 0.178039 0 0 0 0 0.174118 0 0 0 0 0.17098 0 0 0 0.1735 0"/>
<feBlend mode="normal" in2="BackgroundImageFix" result="effect1_dropShadow_373_526"/>
<feBlend mode="normal" in="SourceGraphic" in2="effect1_dropShadow_373_526" result="shape"/>
<feColorMatrix in="SourceAlpha" type="matrix" values="0 0 0 0 0 0 0 0 0 0 0 0 0 0 0 0 0 0 127 0" result="hardAlpha"/>
<feOffset dy="4.96702"/>
<feGaussianBlur stdDeviation="2.48351"/>
<feComposite in2="hardAlpha" operator="arithmetic" k2="-1" k3="1"/>
<feColorMatrix type="matrix" values="0 0 0 0 0.9988 0 0 0 0 0.9768 0 0 0 0 0.9592 0 0 0 1 0"/>
<feBlend mode="normal" in2="shape" result="effect2_innerShadow_373_526"/>
<feColorMatrix in="SourceAlpha" type="matrix" values="0 0 0 0 0 0 0 0 0 0 0 0 0 0 0 0 0 0 127 0" result="hardAlpha"/>
<feOffset dy="-4.96702"/>
<feGaussianBlur stdDeviation="2.48351"/>
<feComposite in2="hardAlpha" operator="arithmetic" k2="-1" k3="1"/>
<feColorMatrix type="matrix" values="0 0 0 0 0.754441 0 0 0 0 0.737824 0 0 0 0 0.724529 0 0 0 1 0"/>
<feBlend mode="normal" in2="effect2_innerShadow_373_526" result="effect3_innerShadow_373_526"/>
</filter>
<filter id="filter2_dii_373_526" x="44.1731" y="271.48" width="293.312" height="306.511" filterUnits="userSpaceOnUse" color-interpolation-filters="sRGB">
<feFlood flood-opacity="0" result="BackgroundImageFix"/>
<feColorMatrix in="SourceAlpha" type="matrix" values="0 0 0 0 0 0 0 0 0 0 0 0 0 0 0 0 0 0 127 0" result="hardAlpha"/>
<feOffset dy="34.9135"/>
<feGaussianBlur stdDeviation="34.9135"/>
<feColorMatrix type="matrix" values="0 0 0 0 0.195294 0 0 0 0 0.19451 0 0 0 0 0.192941 0 0 0 0.751 0"/>
<feBlend mode="normal" in2="BackgroundImageFix" result="effect1_dropShadow_373_526"/>
<feBlend mode="normal" in="SourceGraphic" in2="effect1_dropShadow_373_526" result="shape"/>
<feColorMatrix in="SourceAlpha" type="matrix" values="0 0 0 0 0 0 0 0 0 0 0 0 0 0 0 0 0 0 127 0" result="hardAlpha"/>
<feOffset dy="22.1894"/>
<feGaussianBlur stdDeviation="11.0947"/>
<feComposite in2="hardAlpha" operator="arithmetic" k2="-1" k3="1"/>
<feColorMatrix type="matrix" values="0 0 0 0 1 0 0 0 0 1 0 0 0 0 1 0 0 0 1 0"/>
<feBlend mode="normal" in2="shape" result="effect2_innerShadow_373_526"/>
<feColorMatrix in="SourceAlpha" type="matrix" values="0 0 0 0 0 0 0 0 0 0 0 0 0 0 0 0 0 0 127 0" result="hardAlpha"/>
<feOffset dy="-22.1894"/>
<feGaussianBlur stdDeviation="11.0947"/>
<feComposite in2="hardAlpha" operator="arithmetic" k2="-1" k3="1"/>
<feColorMatrix type="matrix" values="0 0 0 0 0.424765 0 0 0 0 0.423059 0 0 0 0 0.419647 0 0 0 1 0"/>
<feBlend mode="normal" in2="effect2_innerShadow_373_526" result="effect3_innerShadow_373_526"/>
</filter>
<filter id="filter3_dii_373_526" x="127.281" y="263.824" width="130.443" height="55.2089" filterUnits="userSpaceOnUse" color-interpolation-filters="sRGB">
<feFlood flood-opacity="0" result="BackgroundImageFix"/>
<feColorMatrix in="SourceAlpha" type="matrix" values="0 0 0 0 0 0 0 0 0 0 0 0 0 0 0 0 0 0 127 0" result="hardAlpha"/>
<feOffset dy="10.8053"/>
<feGaussianBlur stdDeviation="10.8053"/>
<feColorMatrix type="matrix" values="0 0 0 0 0.0619608 0 0 0 0 0.0698039 0 0 0 0 0.0784314 0 0 0 0.3275 0"/>
<feBlend mode="normal" in2="BackgroundImageFix" result="effect1_dropShadow_373_526"/>
<feBlend mode="normal" in="SourceGraphic" in2="effect1_dropShadow_373_526" result="shape"/>
<feColorMatrix in="SourceAlpha" type="matrix" values="0 0 0 0 0 0 0 0 0 0 0 0 0 0 0 0 0 0 127 0" result="hardAlpha"/>
<feOffset dy="3.96193"/>
<feGaussianBlur stdDeviation="1.98097"/>
<feComposite in2="hardAlpha" operator="arithmetic" k2="-1" k3="1"/>
<feColorMatrix type="matrix" values="0 0 0 0 0.374863 0 0 0 0 0.422314 0 0 0 0 0.47451 0 0 0 1 0"/>
<feBlend mode="normal" in2="shape" result="effect2_innerShadow_373_526"/>
<feColorMatrix in="SourceAlpha" type="matrix" values="0 0 0 0 0 0 0 0 0 0 0 0 0 0 0 0 0 0 127 0" result="hardAlpha"/>
<feOffset dy="-3.96193"/>
<feGaussianBlur stdDeviation="1.98097"/>
<feComposite in2="hardAlpha" operator="arithmetic" k2="-1" k3="1"/>
<feColorMatrix type="matrix" values="0 0 0 0 0.22848 0 0 0 0 0.257402 0 0 0 0 0.289216 0 0 0 1 0"/>
<feBlend mode="normal" in2="effect2_innerShadow_373_526" result="effect3_innerShadow_373_526"/>
</filter>
<filter id="filter4_dii_373_526" x="310.693" y="124.664" width="217.767" height="159.779" filterUnits="userSpaceOnUse" color-interpolation-filters="sRGB">
<feFlood flood-opacity="0" result="BackgroundImageFix"/>
<feColorMatrix in="SourceAlpha" type="matrix" values="0 0 0 0 0 0 0 0 0 0 0 0 0 0 0 0 0 0 127 0" result="hardAlpha"/>
<feOffset dy="18.3356"/>
<feGaussianBlur stdDeviation="18.3356"/>
<feColorMatrix type="matrix" values="0 0 0 0 0.178039 0 0 0 0 0.174118 0 0 0 0 0.17098 0 0 0 0.513 0"/>
<feBlend mode="normal" in2="BackgroundImageFix" result="effect1_dropShadow_373_526"/>
<feBlend mode="normal" in="SourceGraphic" in2="effect1_dropShadow_373_526" result="shape"/>
<feColorMatrix in="SourceAlpha" type="matrix" values="0 0 0 0 0 0 0 0 0 0 0 0 0 0 0 0 0 0 127 0" result="hardAlpha"/>
<feOffset dy="8.8826"/>
<feGaussianBlur stdDeviation="4.4413"/>
<feComposite in2="hardAlpha" operator="arithmetic" k2="-1" k3="1"/>
<feColorMatrix type="matrix" values="0 0 0 0 1 0 0 0 0 1 0 0 0 0 1 0 0 0 1 0"/>
<feBlend mode="normal" in2="shape" result="effect2_innerShadow_373_526"/>
<feColorMatrix in="SourceAlpha" type="matrix" values="0 0 0 0 0 0 0 0 0 0 0 0 0 0 0 0 0 0 127 0" result="hardAlpha"/>
<feOffset dy="-8.8826"/>
<feGaussianBlur stdDeviation="4.4413"/>
<feComposite in2="hardAlpha" operator="arithmetic" k2="-1" k3="1"/>
<feColorMatrix type="matrix" values="0 0 0 0 0.538569 0 0 0 0 0.526706 0 0 0 0 0.517216 0 0 0 1 0"/>
<feBlend mode="normal" in2="effect2_innerShadow_373_526" result="effect3_innerShadow_373_526"/>
</filter>
<filter id="filter5_dii_373_526" x="309.581" y="420.975" width="219.919" height="160.442" filterUnits="userSpaceOnUse" color-interpolation-filters="sRGB">
<feFlood flood-opacity="0" result="BackgroundImageFix"/>
<feColorMatrix in="SourceAlpha" type="matrix" values="0 0 0 0 0 0 0 0 0 0 0 0 0 0 0 0 0 0 127 0" result="hardAlpha"/>
<feOffset dy="18.4724"/>
<feGaussianBlur stdDeviation="18.4724"/>
<feColorMatrix type="matrix" values="0 0 0 0 0.178039 0 0 0 0 0.174118 0 0 0 0 0.17098 0 0 0 0.1735 0"/>
<feBlend mode="normal" in2="BackgroundImageFix" result="effect1_dropShadow_373_526"/>
<feBlend mode="normal" in="SourceGraphic" in2="effect1_dropShadow_373_526" result="shape"/>
<feColorMatrix in="SourceAlpha" type="matrix" values="0 0 0 0 0 0 0 0 0 0 0 0 0 0 0 0 0 0 127 0" result="hardAlpha"/>
<feOffset dy="4.96702"/>
<feGaussianBlur stdDeviation="2.48351"/>
<feComposite in2="hardAlpha" operator="arithmetic" k2="-1" k3="1"/>
<feColorMatrix type="matrix" values="0 0 0 0 0.9988 0 0 0 0 0.9768 0 0 0 0 0.9592 0 0 0 1 0"/>
<feBlend mode="normal" in2="shape" result="effect2_innerShadow_373_526"/>
<feColorMatrix in="SourceAlpha" type="matrix" values="0 0 0 0 0 0 0 0 0 0 0 0 0 0 0 0 0 0 127 0" result="hardAlpha"/>
<feOffset dy="-4.96702"/>
<feGaussianBlur stdDeviation="2.48351"/>
<feComposite in2="hardAlpha" operator="arithmetic" k2="-1" k3="1"/>
<feColorMatrix type="matrix" values="0 0 0 0 0.754441 0 0 0 0 0.737824 0 0 0 0 0.724529 0 0 0 1 0"/>
<feBlend mode="normal" in2="effect2_innerShadow_373_526" result="effect3_innerShadow_373_526"/>
</filter>
<filter id="filter6_dii_373_526" x="241.173" y="184.118" width="354.195" height="372.889" filterUnits="userSpaceOnUse" color-interpolation-filters="sRGB">
<feFlood flood-opacity="0" result="BackgroundImageFix"/>
<feColorMatrix in="SourceAlpha" type="matrix" values="0 0 0 0 0 0 0 0 0 0 0 0 0 0 0 0 0 0 127 0" result="hardAlpha"/>
<feOffset dy="34.9135"/>
<feGaussianBlur stdDeviation="34.9135"/>
<feColorMatrix type="matrix" values="0 0 0 0 0.195294 0 0 0 0 0.19451 0 0 0 0 0.192941 0 0 0 0.751 0"/>
<feBlend mode="normal" in2="BackgroundImageFix" result="effect1_dropShadow_373_526"/>
<feBlend mode="normal" in="SourceGraphic" in2="effect1_dropShadow_373_526" result="shape"/>
<feColorMatrix in="SourceAlpha" type="matrix" values="0 0 0 0 0 0 0 0 0 0 0 0 0 0 0 0 0 0 127 0" result="hardAlpha"/>
<feOffset dy="22.1894"/>
<feGaussianBlur stdDeviation="11.0947"/>
<feComposite in2="hardAlpha" operator="arithmetic" k2="-1" k3="1"/>
<feColorMatrix type="matrix" values="0 0 0 0 1 0 0 0 0 1 0 0 0 0 1 0 0 0 1 0"/>
<feBlend mode="normal" in2="shape" result="effect2_innerShadow_373_526"/>
<feColorMatrix in="SourceAlpha" type="matrix" values="0 0 0 0 0 0 0 0 0 0 0 0 0 0 0 0 0 0 127 0" result="hardAlpha"/>
<feOffset dy="-22.1894"/>
<feGaussianBlur stdDeviation="11.0947"/>
<feComposite in2="hardAlpha" operator="arithmetic" k2="-1" k3="1"/>
<feColorMatrix type="matrix" values="0 0 0 0 0.424765 0 0 0 0 0.423059 0 0 0 0 0.419647 0 0 0 1 0"/>
<feBlend mode="normal" in2="effect2_innerShadow_373_526" result="effect3_innerShadow_373_526"/>
</filter>
<filter id="filter7_dii_373_526" x="338.106" y="163.827" width="165.002" height="59.9777" filterUnits="userSpaceOnUse" color-interpolation-filters="sRGB">
<feFlood flood-opacity="0" result="BackgroundImageFix"/>
<feColorMatrix in="SourceAlpha" type="matrix" values="0 0 0 0 0 0 0 0 0 0 0 0 0 0 0 0 0 0 127 0" result="hardAlpha"/>
<feOffset dy="10.8053"/>
<feGaussianBlur stdDeviation="10.8053"/>
<feColorMatrix type="matrix" values="0 0 0 0 0.0619608 0 0 0 0 0.0698039 0 0 0 0 0.0784314 0 0 0 0.3275 0"/>
<feBlend mode="normal" in2="BackgroundImageFix" result="effect1_dropShadow_373_526"/>
<feBlend mode="normal" in="SourceGraphic" in2="effect1_dropShadow_373_526" result="shape"/>
<feColorMatrix in="SourceAlpha" type="matrix" values="0 0 0 0 0 0 0 0 0 0 0 0 0 0 0 0 0 0 127 0" result="hardAlpha"/>
<feOffset dy="3.96193"/>
<feGaussianBlur stdDeviation="1.98097"/>
<feComposite in2="hardAlpha" operator="arithmetic" k2="-1" k3="1"/>
<feColorMatrix type="matrix" values="0 0 0 0 0.374863 0 0 0 0 0.422314 0 0 0 0 0.47451 0 0 0 1 0"/>
<feBlend mode="normal" in2="shape" result="effect2_innerShadow_373_526"/>
<feColorMatrix in="SourceAlpha" type="matrix" values="0 0 0 0 0 0 0 0 0 0 0 0 0 0 0 0 0 0 127 0" result="hardAlpha"/>
<feOffset dy="-3.96193"/>
<feGaussianBlur stdDeviation="1.98097"/>
<feComposite in2="hardAlpha" operator="arithmetic" k2="-1" k3="1"/>
<feColorMatrix type="matrix" values="0 0 0 0 0.22848 0 0 0 0 0.257402 0 0 0 0 0.289216 0 0 0 1 0"/>
<feBlend mode="normal" in2="effect2_innerShadow_373_526" result="effect3_innerShadow_373_526"/>
</filter>
<linearGradient id="paint0_linear_373_526" x1="191.765" y1="252" x2="191.765" y2="313.837" gradientUnits="userSpaceOnUse">
<stop stop-color="white"/>
<stop offset="1" stop-color="#9B9895"/>
</linearGradient>
<linearGradient id="paint1_linear_373_526" x1="191.739" y1="464.08" x2="191.739" y2="526" gradientUnits="userSpaceOnUse">
<stop stop-color="#C7C3BF"/>
<stop offset="1" stop-color="#F8F2EE"/>
</linearGradient>
<linearGradient id="paint2_linear_373_526" x1="190.829" y1="306.394" x2="190.829" y2="473.251" gradientUnits="userSpaceOnUse">
<stop stop-color="#888887"/>
<stop offset="1" stop-color="white"/>
</linearGradient>
<radialGradient id="paint3_radial_373_526" cx="0" cy="0" r="1" gradientUnits="userSpaceOnUse" gradientTransform="translate(150.749 406.519) scale(7.78159 1.70381)">
<stop offset="0.1" stop-color="#DADADA" stop-opacity="0.95"/>
<stop offset="1" stop-color="white" stop-opacity="0"/>
</radialGradient>
<radialGradient id="paint4_radial_373_526" cx="0" cy="0" r="1" gradientUnits="userSpaceOnUse" gradientTransform="translate(151.407 404.262) scale(8.04261 8.02999)">
<stop stop-color="white"/>
<stop offset="1" stop-color="#B1BFC7"/>
</radialGradient>
<radialGradient id="paint5_radial_373_526" cx="0" cy="0" r="1" gradientUnits="userSpaceOnUse" gradientTransform="translate(148.615 400.126) scale(2.76104 2.75671)">
<stop offset="0.11" stop-color="white"/>
<stop offset="0.95"/>
</radialGradient>
<radialGradient id="paint6_radial_373_526" cx="0" cy="0" r="1" gradientUnits="userSpaceOnUse" gradientTransform="translate(147.971 395.371) scale(0.662555 0.661519)">
<stop offset="0.11" stop-color="white"/>
<stop offset="0.95"/>
</radialGradient>
<radialGradient id="paint7_radial_373_526" cx="0" cy="0" r="1" gradientUnits="userSpaceOnUse" gradientTransform="translate(147.789 400.802) scale(1.02802 1.0264)">
<stop offset="0.11" stop-color="white"/>
<stop offset="0.95"/>
</radialGradient>
<radialGradient id="paint8_radial_373_526" cx="0" cy="0" r="1" gradientUnits="userSpaceOnUse" gradientTransform="translate(152.439 394.189) scale(1.24023 1.23828)">
<stop offset="0.11" stop-color="white"/>
<stop offset="0.95"/>
</radialGradient>
<radialGradient id="paint9_radial_373_526" cx="0" cy="0" r="1" gradientUnits="userSpaceOnUse" gradientTransform="translate(151.993 396.779) scale(0.254649 0.254254)">
<stop offset="0.11" stop-color="white"/>
<stop offset="0.95"/>
</radialGradient>
<radialGradient id="paint10_radial_373_526" cx="0" cy="0" r="1" gradientUnits="userSpaceOnUse" gradientTransform="translate(149.48 397.231) scale(0.523441 0.522619)">
<stop offset="0.11" stop-color="white"/>
<stop offset="0.95"/>
</radialGradient>
<radialGradient id="paint11_radial_373_526" cx="0" cy="0" r="1" gradientUnits="userSpaceOnUse" gradientTransform="translate(155.235 398.008) scale(3.63344 3.62774)">
<stop offset="0.11" stop-color="white"/>
<stop offset="0.95"/>
</radialGradient>
<linearGradient id="paint12_linear_373_526" x1="158.137" y1="397.194" x2="149.415" y2="405.93" gradientUnits="userSpaceOnUse">
<stop/>
<stop offset="0.6" stop-color="white"/>
<stop offset="0.9"/>
</linearGradient>
<linearGradient id="paint13_linear_373_526" x1="151.019" y1="384.576" x2="146.806" y2="398.875" gradientUnits="userSpaceOnUse">
<stop/>
<stop offset="0.6" stop-color="white"/>
<stop offset="0.9"/>
</linearGradient>
<linearGradient id="paint14_linear_373_526" x1="146.203" y1="394.032" x2="158.961" y2="397.682" gradientUnits="userSpaceOnUse">
<stop/>
<stop offset="0.6" stop-color="white"/>
<stop offset="0.9"/>
</linearGradient>
<linearGradient id="paint15_linear_373_526" x1="162.79" y1="391.117" x2="150.733" y2="393.567" gradientUnits="userSpaceOnUse">
<stop/>
<stop offset="0.6" stop-color="white"/>
<stop offset="0.9"/>
</linearGradient>
<linearGradient id="paint16_linear_373_526" x1="155.19" y1="398.235" x2="146.172" y2="386.192" gradientUnits="userSpaceOnUse">
<stop/>
<stop offset="0.6" stop-color="white"/>
<stop offset="0.9"/>
</linearGradient>
<linearGradient id="paint17_linear_373_526" x1="158.07" y1="397.825" x2="158.326" y2="412.044" gradientUnits="userSpaceOnUse">
<stop/>
<stop offset="0.6" stop-color="white"/>
<stop offset="0.9"/>
</linearGradient>
<linearGradient id="paint18_linear_373_526" x1="156.422" y1="412.141" x2="168.289" y2="407.998" gradientUnits="userSpaceOnUse">
<stop/>
<stop offset="0.6" stop-color="white"/>
<stop offset="0.9"/>
</linearGradient>
<linearGradient id="paint19_linear_373_526" x1="149.799" y1="397.902" x2="149.799" y2="404.16" gradientUnits="userSpaceOnUse">
<stop stop-color="white"/>
<stop offset="1"/>
</linearGradient>
<linearGradient id="paint20_linear_373_526" x1="188.629" y1="391.622" x2="195.158" y2="407.329" gradientUnits="userSpaceOnUse">
<stop stop-color="white"/>
<stop offset="1" stop-color="#D4D6D7"/>
</linearGradient>
<linearGradient id="paint21_linear_373_526" x1="196.79" y1="404.956" x2="187.979" y2="393.966" gradientUnits="userSpaceOnUse">
<stop stop-color="white"/>
<stop offset="1" stop-color="#B8BABC"/>
</linearGradient>
<radialGradient id="paint22_radial_373_526" cx="0" cy="0" r="1" gradientUnits="userSpaceOnUse" gradientTransform="translate(189.978 395.76) scale(5.65883 5.64995)">
<stop stop-color="white"/>
<stop offset="1" stop-color="#B1BFC7"/>
</radialGradient>
<linearGradient id="paint23_linear_373_526" x1="190.552" y1="396.794" x2="194.529" y2="403.667" gradientUnits="userSpaceOnUse">
<stop stop-color="white"/>
<stop offset="1" stop-color="#B7C6CE"/>
</linearGradient>
<linearGradient id="paint24_linear_373_526" x1="192.503" y1="274.63" x2="192.503" y2="286.617" gradientUnits="userSpaceOnUse">
<stop stop-color="#3E464F"/>
<stop offset="1" stop-color="#5B6774"/>
</linearGradient>
<linearGradient id="paint25_linear_373_526" x1="419.577" y1="143" x2="419.577" y2="229.436" gradientUnits="userSpaceOnUse">
<stop stop-color="white"/>
<stop offset="1" stop-color="#9B9895"/>
</linearGradient>
<linearGradient id="paint26_linear_373_526" x1="419.541" y1="439.448" x2="419.541" y2="526" gradientUnits="userSpaceOnUse">
<stop stop-color="#C7C3BF"/>
<stop offset="1" stop-color="#F8F2EE"/>
</linearGradient>
<linearGradient id="paint27_linear_373_526" x1="418.271" y1="219.032" x2="418.271" y2="452.267" gradientUnits="userSpaceOnUse">
<stop stop-color="#888887"/>
<stop offset="1" stop-color="white"/>
</linearGradient>
<radialGradient id="paint28_radial_373_526" cx="0" cy="0" r="1" gradientUnits="userSpaceOnUse" gradientTransform="translate(362.31 358.989) scale(10.8649 2.38161)">
<stop offset="0.1" stop-color="#DADADA" stop-opacity="0.95"/>
<stop offset="1" stop-color="white" stop-opacity="0"/>
</radialGradient>
<radialGradient id="paint29_radial_373_526" cx="0" cy="0" r="1" gradientUnits="userSpaceOnUse" gradientTransform="translate(363.228 355.834) scale(11.2293 11.2244)">
<stop stop-color="white"/>
<stop offset="1" stop-color="#B1BFC7"/>
</radialGradient>
<radialGradient id="paint30_radial_373_526" cx="0" cy="0" r="1" gradientUnits="userSpaceOnUse" gradientTransform="translate(359.33 350.053) scale(3.85503 3.85335)">
<stop offset="0.11" stop-color="white"/>
<stop offset="0.95"/>
</radialGradient>
<radialGradient id="paint31_radial_373_526" cx="0" cy="0" r="1" gradientUnits="userSpaceOnUse" gradientTransform="translate(358.431 343.405) scale(0.925075 0.924675)">
<stop offset="0.11" stop-color="white"/>
<stop offset="0.95"/>
</radialGradient>
<radialGradient id="paint32_radial_373_526" cx="0" cy="0" r="1" gradientUnits="userSpaceOnUse" gradientTransform="translate(358.178 350.997) scale(1.43535 1.43472)">
<stop offset="0.11" stop-color="white"/>
<stop offset="0.95"/>
</radialGradient>
<radialGradient id="paint33_radial_373_526" cx="0" cy="0" r="1" gradientUnits="userSpaceOnUse" gradientTransform="translate(364.67 341.754) scale(1.73164 1.73088)">
<stop offset="0.11" stop-color="white"/>
<stop offset="0.95"/>
</radialGradient>
<radialGradient id="paint34_radial_373_526" cx="0" cy="0" r="1" gradientUnits="userSpaceOnUse" gradientTransform="translate(364.047 345.373) scale(0.355546 0.355395)">
<stop offset="0.11" stop-color="white"/>
<stop offset="0.95"/>
</radialGradient>
<radialGradient id="paint35_radial_373_526" cx="0" cy="0" r="1" gradientUnits="userSpaceOnUse" gradientTransform="translate(360.538 346.005) scale(0.730843 0.730532)">
<stop offset="0.11" stop-color="white"/>
<stop offset="0.95"/>
</radialGradient>
<radialGradient id="paint36_radial_373_526" cx="0" cy="0" r="1" gradientUnits="userSpaceOnUse" gradientTransform="translate(368.574 347.091) scale(5.0731 5.07089)">
<stop offset="0.11" stop-color="white"/>
<stop offset="0.95"/>
</radialGradient>
<linearGradient id="paint37_linear_373_526" x1="372.625" y1="345.954" x2="360.434" y2="358.151" gradientUnits="userSpaceOnUse">
<stop/>
<stop offset="0.6" stop-color="white"/>
<stop offset="0.9"/>
</linearGradient>
<linearGradient id="paint38_linear_373_526" x1="362.687" y1="328.317" x2="356.793" y2="348.3" gradientUnits="userSpaceOnUse">
<stop/>
<stop offset="0.6" stop-color="white"/>
<stop offset="0.9"/>
</linearGradient>
<linearGradient id="paint39_linear_373_526" x1="355.963" y1="341.533" x2="373.779" y2="346.626" gradientUnits="userSpaceOnUse">
<stop/>
<stop offset="0.6" stop-color="white"/>
<stop offset="0.9"/>
</linearGradient>
<linearGradient id="paint40_linear_373_526" x1="379.123" y1="337.459" x2="362.287" y2="340.876" gradientUnits="userSpaceOnUse">
<stop/>
<stop offset="0.6" stop-color="white"/>
<stop offset="0.9"/>
</linearGradient>
<linearGradient id="paint41_linear_373_526" x1="368.511" y1="347.409" x2="355.901" y2="330.588" gradientUnits="userSpaceOnUse">
<stop/>
<stop offset="0.6" stop-color="white"/>
<stop offset="0.9"/>
</linearGradient>
<linearGradient id="paint42_linear_373_526" x1="372.532" y1="346.836" x2="372.89" y2="366.712" gradientUnits="userSpaceOnUse">
<stop/>
<stop offset="0.6" stop-color="white"/>
<stop offset="0.9"/>
</linearGradient>
<linearGradient id="paint43_linear_373_526" x1="370.23" y1="366.847" x2="386.804" y2="361.068" gradientUnits="userSpaceOnUse">
<stop/>
<stop offset="0.6" stop-color="white"/>
<stop offset="0.9"/>
</linearGradient>
<linearGradient id="paint44_linear_373_526" x1="360.983" y1="346.943" x2="360.983" y2="355.691" gradientUnits="userSpaceOnUse">
<stop stop-color="white"/>
<stop offset="1"/>
</linearGradient>
<linearGradient id="paint45_linear_373_526" x1="415.199" y1="338.165" x2="424.333" y2="360.112" gradientUnits="userSpaceOnUse">
<stop stop-color="white"/>
<stop offset="1" stop-color="#D4D6D7"/>
</linearGradient>
<linearGradient id="paint46_linear_373_526" x1="426.594" y1="356.803" x2="414.275" y2="341.455" gradientUnits="userSpaceOnUse">
<stop stop-color="white"/>
<stop offset="1" stop-color="#B8BABC"/>
</linearGradient>
<radialGradient id="paint47_radial_373_526" cx="0" cy="0" r="1" gradientUnits="userSpaceOnUse" gradientTransform="translate(417.082 343.949) scale(7.901 7.89756)">
<stop stop-color="white"/>
<stop offset="1" stop-color="#B1BFC7"/>
</radialGradient>
<linearGradient id="paint48_linear_373_526" x1="417.885" y1="345.394" x2="423.447" y2="354.995" gradientUnits="userSpaceOnUse">
<stop stop-color="white"/>
<stop offset="1" stop-color="#B7C6CE"/>
</linearGradient>
<linearGradient id="paint49_linear_373_526" x1="420.607" y1="174.632" x2="420.607" y2="191.388" gradientUnits="userSpaceOnUse">
<stop stop-color="#3E464F"/>
<stop offset="1" stop-color="#5B6774"/>
</linearGradient>
<clipPath id="clip0_373_526">
<rect width="668" height="447" fill="white" transform="translate(0 221)"/>
</clipPath>
</defs>
</svg>
